<svg width="1600" height="1225" viewBox="0 0 1600 1225" fill="none" xmlns="http://www.w3.org/2000/svg">
<path d="M0 272H1600" stroke="#EEEEEE"/>
<path d="M0 408H1600" stroke="#EEEEEE"/>
<path d="M0 544H1600" stroke="#EEEEEE"/>
<path d="M0 680H1600" stroke="#EEEEEE"/>
<path d="M0 816H1600" stroke="#EEEEEE"/>
<path d="M0 952H1600" stroke="#EEEEEE"/>
<path d="M0 1088H1600" stroke="#EEEEEE"/>
<path d="M324 1224L324 136" stroke="#EEEEEE"/>
<path d="M188 1088L188 272" stroke="#EEEEEE"/>
<path d="M596 1088V272" stroke="#EEEEEE"/>
<path d="M732 952V408" stroke="#EEEEEE"/>
<path d="M868 1224V136" stroke="#EEEEEE"/>
<path d="M1004 1224V136" stroke="#EEEEEE"/>
<path d="M1140 952V408" stroke="#EEEEEE"/>
<path d="M1412 1224V136" stroke="#EEEEEE"/>
<path d="M868 264V280" stroke="#212121"/>
<path d="M876 272L860 272" stroke="#212121"/>
<path d="M1276 672V688" stroke="#212121"/>
<path d="M1284 680L1268 680" stroke="#212121"/>
<path d="M1412 1080V1096" stroke="#212121"/>
<path d="M1420 1088L1404 1088" stroke="#212121"/>
<path d="M868 944V960" stroke="#212121"/>
<path d="M876 952L860 952" stroke="#212121"/>
<path d="M324 1208V1224" stroke="#212121"/>
<path d="M332 1216L316 1216" stroke="#212121"/>
<path d="M324 536V552" stroke="#212121"/>
<path d="M332 544L316 544" stroke="#212121"/>
<path d="M732 400V416" stroke="#212121"/>
<path d="M740 408L724 408" stroke="#212121"/>
<rect x="188" y="680" width="1" height="1" fill="#CB000C"/>
<rect x="188" y="688" width="1" height="1" fill="#CB000C"/>
<rect x="188" y="696" width="1" height="1" fill="#CB000C"/>
<rect x="188" y="704" width="1" height="1" fill="#CB000C"/>
<rect x="188" y="712" width="1" height="1" fill="#CB000C"/>
<rect x="188" y="720" width="1" height="1" fill="#CB000C"/>
<rect x="188" y="728" width="1" height="1" fill="#CB000C"/>
<rect x="188" y="736" width="1" height="1" fill="#CB000C"/>
<rect x="188" y="744" width="1" height="1" fill="#CB000C"/>
<rect x="188" y="752" width="1" height="1" fill="#CB000C"/>
<rect x="188" y="760" width="1" height="1" fill="#CB000C"/>
<rect x="188" y="768" width="1" height="1" fill="#CB000C"/>
<rect x="188" y="776" width="1" height="1" fill="#CB000C"/>
<rect x="188" y="784" width="1" height="1" fill="#CB000C"/>
<rect x="188" y="792" width="1" height="1" fill="#CB000C"/>
<rect x="188" y="800" width="1" height="1" fill="#CB000C"/>
<rect x="188" y="808" width="1" height="1" fill="#CB000C"/>
<rect x="188" y="816" width="1" height="1" fill="#CB000C"/>
<rect x="196" y="680" width="1" height="1" fill="#CB000C"/>
<rect x="196" y="688" width="1" height="1" fill="#CB000C"/>
<rect x="196" y="696" width="1" height="1" fill="#CB000C"/>
<rect x="196" y="704" width="1" height="1" fill="#CB000C"/>
<rect x="196" y="712" width="1" height="1" fill="#CB000C"/>
<rect x="196" y="720" width="1" height="1" fill="#CB000C"/>
<rect x="196" y="728" width="1" height="1" fill="#CB000C"/>
<rect x="196" y="736" width="1" height="1" fill="#CB000C"/>
<rect x="196" y="744" width="1" height="1" fill="#CB000C"/>
<rect x="196" y="752" width="1" height="1" fill="#CB000C"/>
<rect x="196" y="760" width="1" height="1" fill="#CB000C"/>
<rect x="196" y="768" width="1" height="1" fill="#CB000C"/>
<rect x="196" y="776" width="1" height="1" fill="#CB000C"/>
<rect x="196" y="784" width="1" height="1" fill="#CB000C"/>
<rect x="196" y="792" width="1" height="1" fill="#CB000C"/>
<rect x="196" y="800" width="1" height="1" fill="#CB000C"/>
<rect x="196" y="808" width="1" height="1" fill="#CB000C"/>
<rect x="196" y="816" width="1" height="1" fill="#CB000C"/>
<rect x="204" y="680" width="1" height="1" fill="#CB000C"/>
<rect x="204" y="688" width="1" height="1" fill="#CB000C"/>
<rect x="204" y="696" width="1" height="1" fill="#CB000C"/>
<rect x="204" y="704" width="1" height="1" fill="#CB000C"/>
<rect x="204" y="712" width="1" height="1" fill="#CB000C"/>
<rect x="204" y="720" width="1" height="1" fill="#CB000C"/>
<rect x="204" y="728" width="1" height="1" fill="#CB000C"/>
<rect x="204" y="736" width="1" height="1" fill="#CB000C"/>
<rect x="204" y="744" width="1" height="1" fill="#CB000C"/>
<rect x="204" y="752" width="1" height="1" fill="#CB000C"/>
<rect x="204" y="760" width="1" height="1" fill="#CB000C"/>
<rect x="204" y="768" width="1" height="1" fill="#CB000C"/>
<rect x="204" y="776" width="1" height="1" fill="#CB000C"/>
<rect x="204" y="784" width="1" height="1" fill="#CB000C"/>
<rect x="204" y="792" width="1" height="1" fill="#CB000C"/>
<rect x="204" y="800" width="1" height="1" fill="#CB000C"/>
<rect x="204" y="808" width="1" height="1" fill="#CB000C"/>
<rect x="204" y="816" width="1" height="1" fill="#CB000C"/>
<rect x="212" y="680" width="1" height="1" fill="#CB000C"/>
<rect x="212" y="688" width="1" height="1" fill="#CB000C"/>
<rect x="212" y="696" width="1" height="1" fill="#CB000C"/>
<rect x="212" y="704" width="1" height="1" fill="#CB000C"/>
<rect x="212" y="712" width="1" height="1" fill="#CB000C"/>
<rect x="212" y="720" width="1" height="1" fill="#CB000C"/>
<rect x="212" y="728" width="1" height="1" fill="#CB000C"/>
<rect x="212" y="736" width="1" height="1" fill="#CB000C"/>
<rect x="212" y="744" width="1" height="1" fill="#CB000C"/>
<rect x="212" y="752" width="1" height="1" fill="#CB000C"/>
<rect x="212" y="760" width="1" height="1" fill="#CB000C"/>
<rect x="212" y="768" width="1" height="1" fill="#CB000C"/>
<rect x="212" y="776" width="1" height="1" fill="#CB000C"/>
<rect x="212" y="784" width="1" height="1" fill="#CB000C"/>
<rect x="212" y="792" width="1" height="1" fill="#CB000C"/>
<rect x="212" y="800" width="1" height="1" fill="#CB000C"/>
<rect x="212" y="808" width="1" height="1" fill="#CB000C"/>
<rect x="212" y="816" width="1" height="1" fill="#CB000C"/>
<rect x="220" y="680" width="1" height="1" fill="#CB000C"/>
<rect x="220" y="688" width="1" height="1" fill="#CB000C"/>
<rect x="220" y="696" width="1" height="1" fill="#CB000C"/>
<rect x="220" y="704" width="1" height="1" fill="#CB000C"/>
<rect x="220" y="712" width="1" height="1" fill="#CB000C"/>
<rect x="220" y="720" width="1" height="1" fill="#CB000C"/>
<rect x="220" y="728" width="1" height="1" fill="#CB000C"/>
<rect x="220" y="736" width="1" height="1" fill="#CB000C"/>
<rect x="220" y="744" width="1" height="1" fill="#CB000C"/>
<rect x="220" y="752" width="1" height="1" fill="#CB000C"/>
<rect x="220" y="760" width="1" height="1" fill="#CB000C"/>
<rect x="220" y="768" width="1" height="1" fill="#CB000C"/>
<rect x="220" y="776" width="1" height="1" fill="#CB000C"/>
<rect x="220" y="784" width="1" height="1" fill="#CB000C"/>
<rect x="220" y="792" width="1" height="1" fill="#CB000C"/>
<rect x="220" y="800" width="1" height="1" fill="#CB000C"/>
<rect x="220" y="808" width="1" height="1" fill="#CB000C"/>
<rect x="220" y="816" width="1" height="1" fill="#CB000C"/>
<rect x="228" y="680" width="1" height="1" fill="#CB000C"/>
<rect x="228" y="688" width="1" height="1" fill="#CB000C"/>
<rect x="228" y="696" width="1" height="1" fill="#CB000C"/>
<rect x="228" y="704" width="1" height="1" fill="#CB000C"/>
<rect x="228" y="712" width="1" height="1" fill="#CB000C"/>
<rect x="228" y="720" width="1" height="1" fill="#CB000C"/>
<rect x="228" y="728" width="1" height="1" fill="#CB000C"/>
<rect x="228" y="736" width="1" height="1" fill="#CB000C"/>
<rect x="228" y="744" width="1" height="1" fill="#CB000C"/>
<rect x="228" y="752" width="1" height="1" fill="#CB000C"/>
<rect x="228" y="760" width="1" height="1" fill="#CB000C"/>
<rect x="228" y="768" width="1" height="1" fill="#CB000C"/>
<rect x="228" y="776" width="1" height="1" fill="#CB000C"/>
<rect x="228" y="784" width="1" height="1" fill="#CB000C"/>
<rect x="228" y="792" width="1" height="1" fill="#CB000C"/>
<rect x="228" y="800" width="1" height="1" fill="#CB000C"/>
<rect x="228" y="808" width="1" height="1" fill="#CB000C"/>
<rect x="228" y="816" width="1" height="1" fill="#CB000C"/>
<rect x="236" y="680" width="1" height="1" fill="#CB000C"/>
<rect x="236" y="688" width="1" height="1" fill="#CB000C"/>
<rect x="236" y="696" width="1" height="1" fill="#CB000C"/>
<rect x="236" y="704" width="1" height="1" fill="#CB000C"/>
<rect x="236" y="712" width="1" height="1" fill="#CB000C"/>
<rect x="236" y="720" width="1" height="1" fill="#CB000C"/>
<rect x="236" y="728" width="1" height="1" fill="#CB000C"/>
<rect x="236" y="736" width="1" height="1" fill="#CB000C"/>
<rect x="236" y="744" width="1" height="1" fill="#CB000C"/>
<rect x="236" y="752" width="1" height="1" fill="#CB000C"/>
<rect x="236" y="760" width="1" height="1" fill="#CB000C"/>
<rect x="236" y="768" width="1" height="1" fill="#CB000C"/>
<rect x="236" y="776" width="1" height="1" fill="#CB000C"/>
<rect x="236" y="784" width="1" height="1" fill="#CB000C"/>
<rect x="236" y="792" width="1" height="1" fill="#CB000C"/>
<rect x="236" y="800" width="1" height="1" fill="#CB000C"/>
<rect x="236" y="808" width="1" height="1" fill="#CB000C"/>
<rect x="236" y="816" width="1" height="1" fill="#CB000C"/>
<rect x="244" y="680" width="1" height="1" fill="#CB000C"/>
<rect x="244" y="688" width="1" height="1" fill="#CB000C"/>
<rect x="244" y="696" width="1" height="1" fill="#CB000C"/>
<rect x="244" y="704" width="1" height="1" fill="#CB000C"/>
<rect x="244" y="712" width="1" height="1" fill="#CB000C"/>
<rect x="244" y="720" width="1" height="1" fill="#CB000C"/>
<rect x="244" y="728" width="1" height="1" fill="#CB000C"/>
<rect x="244" y="736" width="1" height="1" fill="#CB000C"/>
<rect x="244" y="744" width="1" height="1" fill="#CB000C"/>
<rect x="244" y="752" width="1" height="1" fill="#CB000C"/>
<rect x="244" y="760" width="1" height="1" fill="#CB000C"/>
<rect x="244" y="768" width="1" height="1" fill="#CB000C"/>
<rect x="244" y="776" width="1" height="1" fill="#CB000C"/>
<rect x="244" y="784" width="1" height="1" fill="#CB000C"/>
<rect x="244" y="792" width="1" height="1" fill="#CB000C"/>
<rect x="244" y="800" width="1" height="1" fill="#CB000C"/>
<rect x="244" y="808" width="1" height="1" fill="#CB000C"/>
<rect x="244" y="816" width="1" height="1" fill="#CB000C"/>
<rect x="252" y="680" width="1" height="1" fill="#CB000C"/>
<rect x="252" y="688" width="1" height="1" fill="#CB000C"/>
<rect x="252" y="696" width="1" height="1" fill="#CB000C"/>
<rect x="252" y="704" width="1" height="1" fill="#CB000C"/>
<rect x="252" y="712" width="1" height="1" fill="#CB000C"/>
<rect x="252" y="720" width="1" height="1" fill="#CB000C"/>
<rect x="252" y="728" width="1" height="1" fill="#CB000C"/>
<rect x="252" y="736" width="1" height="1" fill="#CB000C"/>
<rect x="252" y="744" width="1" height="1" fill="#CB000C"/>
<rect x="252" y="752" width="1" height="1" fill="#CB000C"/>
<rect x="252" y="760" width="1" height="1" fill="#CB000C"/>
<rect x="252" y="768" width="1" height="1" fill="#CB000C"/>
<rect x="252" y="776" width="1" height="1" fill="#CB000C"/>
<rect x="252" y="784" width="1" height="1" fill="#CB000C"/>
<rect x="252" y="792" width="1" height="1" fill="#CB000C"/>
<rect x="252" y="800" width="1" height="1" fill="#CB000C"/>
<rect x="252" y="808" width="1" height="1" fill="#CB000C"/>
<rect x="252" y="816" width="1" height="1" fill="#CB000C"/>
<rect x="260" y="680" width="1" height="1" fill="#CB000C"/>
<rect x="260" y="688" width="1" height="1" fill="#CB000C"/>
<rect x="260" y="696" width="1" height="1" fill="#CB000C"/>
<rect x="260" y="704" width="1" height="1" fill="#CB000C"/>
<rect x="260" y="712" width="1" height="1" fill="#CB000C"/>
<rect x="260" y="720" width="1" height="1" fill="#CB000C"/>
<rect x="260" y="728" width="1" height="1" fill="#CB000C"/>
<rect x="260" y="736" width="1" height="1" fill="#CB000C"/>
<rect x="260" y="744" width="1" height="1" fill="#CB000C"/>
<rect x="260" y="752" width="1" height="1" fill="#CB000C"/>
<rect x="260" y="760" width="1" height="1" fill="#CB000C"/>
<rect x="260" y="768" width="1" height="1" fill="#CB000C"/>
<rect x="260" y="776" width="1" height="1" fill="#CB000C"/>
<rect x="260" y="784" width="1" height="1" fill="#CB000C"/>
<rect x="260" y="792" width="1" height="1" fill="#CB000C"/>
<rect x="260" y="800" width="1" height="1" fill="#CB000C"/>
<rect x="260" y="808" width="1" height="1" fill="#CB000C"/>
<rect x="260" y="816" width="1" height="1" fill="#CB000C"/>
<rect x="268" y="680" width="1" height="1" fill="#CB000C"/>
<rect x="268" y="688" width="1" height="1" fill="#CB000C"/>
<rect x="268" y="696" width="1" height="1" fill="#CB000C"/>
<rect x="268" y="704" width="1" height="1" fill="#CB000C"/>
<rect x="268" y="712" width="1" height="1" fill="#CB000C"/>
<rect x="268" y="720" width="1" height="1" fill="#CB000C"/>
<rect x="268" y="728" width="1" height="1" fill="#CB000C"/>
<rect x="268" y="736" width="1" height="1" fill="#CB000C"/>
<rect x="268" y="744" width="1" height="1" fill="#CB000C"/>
<rect x="268" y="752" width="1" height="1" fill="#CB000C"/>
<rect x="268" y="760" width="1" height="1" fill="#CB000C"/>
<rect x="268" y="768" width="1" height="1" fill="#CB000C"/>
<rect x="268" y="776" width="1" height="1" fill="#CB000C"/>
<rect x="268" y="784" width="1" height="1" fill="#CB000C"/>
<rect x="268" y="792" width="1" height="1" fill="#CB000C"/>
<rect x="268" y="800" width="1" height="1" fill="#CB000C"/>
<rect x="268" y="808" width="1" height="1" fill="#CB000C"/>
<rect x="268" y="816" width="1" height="1" fill="#CB000C"/>
<rect x="276" y="680" width="1" height="1" fill="#CB000C"/>
<rect x="276" y="688" width="1" height="1" fill="#CB000C"/>
<rect x="276" y="696" width="1" height="1" fill="#CB000C"/>
<rect x="276" y="704" width="1" height="1" fill="#CB000C"/>
<rect x="276" y="712" width="1" height="1" fill="#CB000C"/>
<rect x="276" y="720" width="1" height="1" fill="#CB000C"/>
<rect x="276" y="728" width="1" height="1" fill="#CB000C"/>
<rect x="276" y="736" width="1" height="1" fill="#CB000C"/>
<rect x="276" y="744" width="1" height="1" fill="#CB000C"/>
<rect x="276" y="752" width="1" height="1" fill="#CB000C"/>
<rect x="276" y="760" width="1" height="1" fill="#CB000C"/>
<rect x="276" y="768" width="1" height="1" fill="#CB000C"/>
<rect x="276" y="776" width="1" height="1" fill="#CB000C"/>
<rect x="276" y="784" width="1" height="1" fill="#CB000C"/>
<rect x="276" y="792" width="1" height="1" fill="#CB000C"/>
<rect x="276" y="800" width="1" height="1" fill="#CB000C"/>
<rect x="276" y="808" width="1" height="1" fill="#CB000C"/>
<rect x="276" y="816" width="1" height="1" fill="#CB000C"/>
<rect x="284" y="680" width="1" height="1" fill="#CB000C"/>
<rect x="284" y="688" width="1" height="1" fill="#CB000C"/>
<rect x="284" y="696" width="1" height="1" fill="#CB000C"/>
<rect x="284" y="704" width="1" height="1" fill="#CB000C"/>
<rect x="284" y="712" width="1" height="1" fill="#CB000C"/>
<rect x="284" y="720" width="1" height="1" fill="#CB000C"/>
<rect x="284" y="728" width="1" height="1" fill="#CB000C"/>
<rect x="284" y="736" width="1" height="1" fill="#CB000C"/>
<rect x="284" y="744" width="1" height="1" fill="#CB000C"/>
<rect x="284" y="752" width="1" height="1" fill="#CB000C"/>
<rect x="284" y="760" width="1" height="1" fill="#CB000C"/>
<rect x="284" y="768" width="1" height="1" fill="#CB000C"/>
<rect x="284" y="776" width="1" height="1" fill="#CB000C"/>
<rect x="284" y="784" width="1" height="1" fill="#CB000C"/>
<rect x="284" y="792" width="1" height="1" fill="#CB000C"/>
<rect x="284" y="800" width="1" height="1" fill="#CB000C"/>
<rect x="284" y="808" width="1" height="1" fill="#CB000C"/>
<rect x="284" y="816" width="1" height="1" fill="#CB000C"/>
<rect x="292" y="680" width="1" height="1" fill="#CB000C"/>
<rect x="292" y="688" width="1" height="1" fill="#CB000C"/>
<rect x="292" y="696" width="1" height="1" fill="#CB000C"/>
<rect x="292" y="704" width="1" height="1" fill="#CB000C"/>
<rect x="292" y="712" width="1" height="1" fill="#CB000C"/>
<rect x="292" y="720" width="1" height="1" fill="#CB000C"/>
<rect x="292" y="728" width="1" height="1" fill="#CB000C"/>
<rect x="292" y="736" width="1" height="1" fill="#CB000C"/>
<rect x="292" y="744" width="1" height="1" fill="#CB000C"/>
<rect x="292" y="752" width="1" height="1" fill="#CB000C"/>
<rect x="292" y="760" width="1" height="1" fill="#CB000C"/>
<rect x="292" y="768" width="1" height="1" fill="#CB000C"/>
<rect x="292" y="776" width="1" height="1" fill="#CB000C"/>
<rect x="292" y="784" width="1" height="1" fill="#CB000C"/>
<rect x="292" y="792" width="1" height="1" fill="#CB000C"/>
<rect x="292" y="800" width="1" height="1" fill="#CB000C"/>
<rect x="292" y="808" width="1" height="1" fill="#CB000C"/>
<rect x="292" y="816" width="1" height="1" fill="#CB000C"/>
<rect x="300" y="680" width="1" height="1" fill="#CB000C"/>
<rect x="300" y="688" width="1" height="1" fill="#CB000C"/>
<rect x="300" y="696" width="1" height="1" fill="#CB000C"/>
<rect x="300" y="704" width="1" height="1" fill="#CB000C"/>
<rect x="300" y="712" width="1" height="1" fill="#CB000C"/>
<rect x="300" y="720" width="1" height="1" fill="#CB000C"/>
<rect x="300" y="728" width="1" height="1" fill="#CB000C"/>
<rect x="300" y="736" width="1" height="1" fill="#CB000C"/>
<rect x="300" y="744" width="1" height="1" fill="#CB000C"/>
<rect x="300" y="752" width="1" height="1" fill="#CB000C"/>
<rect x="300" y="760" width="1" height="1" fill="#CB000C"/>
<rect x="300" y="768" width="1" height="1" fill="#CB000C"/>
<rect x="300" y="776" width="1" height="1" fill="#CB000C"/>
<rect x="300" y="784" width="1" height="1" fill="#CB000C"/>
<rect x="300" y="792" width="1" height="1" fill="#CB000C"/>
<rect x="300" y="800" width="1" height="1" fill="#CB000C"/>
<rect x="300" y="808" width="1" height="1" fill="#CB000C"/>
<rect x="300" y="816" width="1" height="1" fill="#CB000C"/>
<rect x="308" y="680" width="1" height="1" fill="#CB000C"/>
<rect x="308" y="688" width="1" height="1" fill="#CB000C"/>
<rect x="308" y="696" width="1" height="1" fill="#CB000C"/>
<rect x="308" y="704" width="1" height="1" fill="#CB000C"/>
<rect x="308" y="712" width="1" height="1" fill="#CB000C"/>
<rect x="308" y="720" width="1" height="1" fill="#CB000C"/>
<rect x="308" y="728" width="1" height="1" fill="#CB000C"/>
<rect x="308" y="736" width="1" height="1" fill="#CB000C"/>
<rect x="308" y="744" width="1" height="1" fill="#CB000C"/>
<rect x="308" y="752" width="1" height="1" fill="#CB000C"/>
<rect x="308" y="760" width="1" height="1" fill="#CB000C"/>
<rect x="308" y="768" width="1" height="1" fill="#CB000C"/>
<rect x="308" y="776" width="1" height="1" fill="#CB000C"/>
<rect x="308" y="784" width="1" height="1" fill="#CB000C"/>
<rect x="308" y="792" width="1" height="1" fill="#CB000C"/>
<rect x="308" y="800" width="1" height="1" fill="#CB000C"/>
<rect x="308" y="808" width="1" height="1" fill="#CB000C"/>
<rect x="308" y="816" width="1" height="1" fill="#CB000C"/>
<rect x="316" y="680" width="1" height="1" fill="#CB000C"/>
<rect x="316" y="688" width="1" height="1" fill="#CB000C"/>
<rect x="316" y="696" width="1" height="1" fill="#CB000C"/>
<rect x="316" y="704" width="1" height="1" fill="#CB000C"/>
<rect x="316" y="712" width="1" height="1" fill="#CB000C"/>
<rect x="316" y="720" width="1" height="1" fill="#CB000C"/>
<rect x="316" y="728" width="1" height="1" fill="#CB000C"/>
<rect x="316" y="736" width="1" height="1" fill="#CB000C"/>
<rect x="316" y="744" width="1" height="1" fill="#CB000C"/>
<rect x="316" y="752" width="1" height="1" fill="#CB000C"/>
<rect x="316" y="760" width="1" height="1" fill="#CB000C"/>
<rect x="316" y="768" width="1" height="1" fill="#CB000C"/>
<rect x="316" y="776" width="1" height="1" fill="#CB000C"/>
<rect x="316" y="784" width="1" height="1" fill="#CB000C"/>
<rect x="316" y="792" width="1" height="1" fill="#CB000C"/>
<rect x="316" y="800" width="1" height="1" fill="#CB000C"/>
<rect x="316" y="808" width="1" height="1" fill="#CB000C"/>
<rect x="316" y="816" width="1" height="1" fill="#CB000C"/>
<rect x="324" y="680" width="1" height="1" fill="#CB000C"/>
<rect x="324" y="688" width="1" height="1" fill="#CB000C"/>
<rect x="324" y="696" width="1" height="1" fill="#CB000C"/>
<rect x="324" y="704" width="1" height="1" fill="#CB000C"/>
<rect x="324" y="712" width="1" height="1" fill="#CB000C"/>
<rect x="324" y="720" width="1" height="1" fill="#CB000C"/>
<rect x="324" y="728" width="1" height="1" fill="#CB000C"/>
<rect x="324" y="736" width="1" height="1" fill="#CB000C"/>
<rect x="324" y="744" width="1" height="1" fill="#CB000C"/>
<rect x="324" y="752" width="1" height="1" fill="#CB000C"/>
<rect x="324" y="760" width="1" height="1" fill="#CB000C"/>
<rect x="324" y="768" width="1" height="1" fill="#CB000C"/>
<rect x="324" y="776" width="1" height="1" fill="#CB000C"/>
<rect x="324" y="784" width="1" height="1" fill="#CB000C"/>
<rect x="324" y="792" width="1" height="1" fill="#CB000C"/>
<rect x="324" y="800" width="1" height="1" fill="#CB000C"/>
<rect x="324" y="808" width="1" height="1" fill="#CB000C"/>
<rect x="324" y="816" width="1" height="1" fill="#CB000C"/>
<rect x="868" y="1088" width="1" height="1" fill="#CB000C"/>
<rect x="868" y="1096" width="1" height="1" fill="#CB000C"/>
<rect x="868" y="1104" width="1" height="1" fill="#CB000C"/>
<rect x="868" y="1112" width="1" height="1" fill="#CB000C"/>
<rect x="868" y="1120" width="1" height="1" fill="#CB000C"/>
<rect x="868" y="1128" width="1" height="1" fill="#CB000C"/>
<rect x="868" y="1136" width="1" height="1" fill="#CB000C"/>
<rect x="868" y="1144" width="1" height="1" fill="#CB000C"/>
<rect x="868" y="1152" width="1" height="1" fill="#CB000C"/>
<rect x="868" y="1160" width="1" height="1" fill="#CB000C"/>
<rect x="868" y="1168" width="1" height="1" fill="#CB000C"/>
<rect x="868" y="1176" width="1" height="1" fill="#CB000C"/>
<rect x="868" y="1184" width="1" height="1" fill="#CB000C"/>
<rect x="868" y="1192" width="1" height="1" fill="#CB000C"/>
<rect x="868" y="1200" width="1" height="1" fill="#CB000C"/>
<rect x="868" y="1208" width="1" height="1" fill="#CB000C"/>
<rect x="868" y="1216" width="1" height="1" fill="#CB000C"/>
<rect x="868" y="1224" width="1" height="1" fill="#CB000C"/>
<rect x="876" y="1088" width="1" height="1" fill="#CB000C"/>
<rect x="876" y="1096" width="1" height="1" fill="#CB000C"/>
<rect x="876" y="1104" width="1" height="1" fill="#CB000C"/>
<rect x="876" y="1112" width="1" height="1" fill="#CB000C"/>
<rect x="876" y="1120" width="1" height="1" fill="#CB000C"/>
<rect x="876" y="1128" width="1" height="1" fill="#CB000C"/>
<rect x="876" y="1136" width="1" height="1" fill="#CB000C"/>
<rect x="876" y="1144" width="1" height="1" fill="#CB000C"/>
<rect x="876" y="1152" width="1" height="1" fill="#CB000C"/>
<rect x="876" y="1160" width="1" height="1" fill="#CB000C"/>
<rect x="876" y="1168" width="1" height="1" fill="#CB000C"/>
<rect x="876" y="1176" width="1" height="1" fill="#CB000C"/>
<rect x="876" y="1184" width="1" height="1" fill="#CB000C"/>
<rect x="876" y="1192" width="1" height="1" fill="#CB000C"/>
<rect x="876" y="1200" width="1" height="1" fill="#CB000C"/>
<rect x="876" y="1208" width="1" height="1" fill="#CB000C"/>
<rect x="876" y="1216" width="1" height="1" fill="#CB000C"/>
<rect x="876" y="1224" width="1" height="1" fill="#CB000C"/>
<rect x="884" y="1088" width="1" height="1" fill="#CB000C"/>
<rect x="884" y="1096" width="1" height="1" fill="#CB000C"/>
<rect x="884" y="1104" width="1" height="1" fill="#CB000C"/>
<rect x="884" y="1112" width="1" height="1" fill="#CB000C"/>
<rect x="884" y="1120" width="1" height="1" fill="#CB000C"/>
<rect x="884" y="1128" width="1" height="1" fill="#CB000C"/>
<rect x="884" y="1136" width="1" height="1" fill="#CB000C"/>
<rect x="884" y="1144" width="1" height="1" fill="#CB000C"/>
<rect x="884" y="1152" width="1" height="1" fill="#CB000C"/>
<rect x="884" y="1160" width="1" height="1" fill="#CB000C"/>
<rect x="884" y="1168" width="1" height="1" fill="#CB000C"/>
<rect x="884" y="1176" width="1" height="1" fill="#CB000C"/>
<rect x="884" y="1184" width="1" height="1" fill="#CB000C"/>
<rect x="884" y="1192" width="1" height="1" fill="#CB000C"/>
<rect x="884" y="1200" width="1" height="1" fill="#CB000C"/>
<rect x="884" y="1208" width="1" height="1" fill="#CB000C"/>
<rect x="884" y="1216" width="1" height="1" fill="#CB000C"/>
<rect x="884" y="1224" width="1" height="1" fill="#CB000C"/>
<rect x="892" y="1088" width="1" height="1" fill="#CB000C"/>
<rect x="892" y="1096" width="1" height="1" fill="#CB000C"/>
<rect x="892" y="1104" width="1" height="1" fill="#CB000C"/>
<rect x="892" y="1112" width="1" height="1" fill="#CB000C"/>
<rect x="892" y="1120" width="1" height="1" fill="#CB000C"/>
<rect x="892" y="1128" width="1" height="1" fill="#CB000C"/>
<rect x="892" y="1136" width="1" height="1" fill="#CB000C"/>
<rect x="892" y="1144" width="1" height="1" fill="#CB000C"/>
<rect x="892" y="1152" width="1" height="1" fill="#CB000C"/>
<rect x="892" y="1160" width="1" height="1" fill="#CB000C"/>
<rect x="892" y="1168" width="1" height="1" fill="#CB000C"/>
<rect x="892" y="1176" width="1" height="1" fill="#CB000C"/>
<rect x="892" y="1184" width="1" height="1" fill="#CB000C"/>
<rect x="892" y="1192" width="1" height="1" fill="#CB000C"/>
<rect x="892" y="1200" width="1" height="1" fill="#CB000C"/>
<rect x="892" y="1208" width="1" height="1" fill="#CB000C"/>
<rect x="892" y="1216" width="1" height="1" fill="#CB000C"/>
<rect x="892" y="1224" width="1" height="1" fill="#CB000C"/>
<rect x="900" y="1088" width="1" height="1" fill="#CB000C"/>
<rect x="900" y="1096" width="1" height="1" fill="#CB000C"/>
<rect x="900" y="1104" width="1" height="1" fill="#CB000C"/>
<rect x="900" y="1112" width="1" height="1" fill="#CB000C"/>
<rect x="900" y="1120" width="1" height="1" fill="#CB000C"/>
<rect x="900" y="1128" width="1" height="1" fill="#CB000C"/>
<rect x="900" y="1136" width="1" height="1" fill="#CB000C"/>
<rect x="900" y="1144" width="1" height="1" fill="#CB000C"/>
<rect x="900" y="1152" width="1" height="1" fill="#CB000C"/>
<rect x="900" y="1160" width="1" height="1" fill="#CB000C"/>
<rect x="900" y="1168" width="1" height="1" fill="#CB000C"/>
<rect x="900" y="1176" width="1" height="1" fill="#CB000C"/>
<rect x="900" y="1184" width="1" height="1" fill="#CB000C"/>
<rect x="900" y="1192" width="1" height="1" fill="#CB000C"/>
<rect x="900" y="1200" width="1" height="1" fill="#CB000C"/>
<rect x="900" y="1208" width="1" height="1" fill="#CB000C"/>
<rect x="900" y="1216" width="1" height="1" fill="#CB000C"/>
<rect x="900" y="1224" width="1" height="1" fill="#CB000C"/>
<rect x="908" y="1088" width="1" height="1" fill="#CB000C"/>
<rect x="908" y="1096" width="1" height="1" fill="#CB000C"/>
<rect x="908" y="1104" width="1" height="1" fill="#CB000C"/>
<rect x="908" y="1112" width="1" height="1" fill="#CB000C"/>
<rect x="908" y="1120" width="1" height="1" fill="#CB000C"/>
<rect x="908" y="1128" width="1" height="1" fill="#CB000C"/>
<rect x="908" y="1136" width="1" height="1" fill="#CB000C"/>
<rect x="908" y="1144" width="1" height="1" fill="#CB000C"/>
<rect x="908" y="1152" width="1" height="1" fill="#CB000C"/>
<rect x="908" y="1160" width="1" height="1" fill="#CB000C"/>
<rect x="908" y="1168" width="1" height="1" fill="#CB000C"/>
<rect x="908" y="1176" width="1" height="1" fill="#CB000C"/>
<rect x="908" y="1184" width="1" height="1" fill="#CB000C"/>
<rect x="908" y="1192" width="1" height="1" fill="#CB000C"/>
<rect x="908" y="1200" width="1" height="1" fill="#CB000C"/>
<rect x="908" y="1208" width="1" height="1" fill="#CB000C"/>
<rect x="908" y="1216" width="1" height="1" fill="#CB000C"/>
<rect x="908" y="1224" width="1" height="1" fill="#CB000C"/>
<rect x="916" y="1088" width="1" height="1" fill="#CB000C"/>
<rect x="916" y="1096" width="1" height="1" fill="#CB000C"/>
<rect x="916" y="1104" width="1" height="1" fill="#CB000C"/>
<rect x="916" y="1112" width="1" height="1" fill="#CB000C"/>
<rect x="916" y="1120" width="1" height="1" fill="#CB000C"/>
<rect x="916" y="1128" width="1" height="1" fill="#CB000C"/>
<rect x="916" y="1136" width="1" height="1" fill="#CB000C"/>
<rect x="916" y="1144" width="1" height="1" fill="#CB000C"/>
<rect x="916" y="1152" width="1" height="1" fill="#CB000C"/>
<rect x="916" y="1160" width="1" height="1" fill="#CB000C"/>
<rect x="916" y="1168" width="1" height="1" fill="#CB000C"/>
<rect x="916" y="1176" width="1" height="1" fill="#CB000C"/>
<rect x="916" y="1184" width="1" height="1" fill="#CB000C"/>
<rect x="916" y="1192" width="1" height="1" fill="#CB000C"/>
<rect x="916" y="1200" width="1" height="1" fill="#CB000C"/>
<rect x="916" y="1208" width="1" height="1" fill="#CB000C"/>
<rect x="916" y="1216" width="1" height="1" fill="#CB000C"/>
<rect x="916" y="1224" width="1" height="1" fill="#CB000C"/>
<rect x="924" y="1088" width="1" height="1" fill="#CB000C"/>
<rect x="924" y="1096" width="1" height="1" fill="#CB000C"/>
<rect x="924" y="1104" width="1" height="1" fill="#CB000C"/>
<rect x="924" y="1112" width="1" height="1" fill="#CB000C"/>
<rect x="924" y="1120" width="1" height="1" fill="#CB000C"/>
<rect x="924" y="1128" width="1" height="1" fill="#CB000C"/>
<rect x="924" y="1136" width="1" height="1" fill="#CB000C"/>
<rect x="924" y="1144" width="1" height="1" fill="#CB000C"/>
<rect x="924" y="1152" width="1" height="1" fill="#CB000C"/>
<rect x="924" y="1160" width="1" height="1" fill="#CB000C"/>
<rect x="924" y="1168" width="1" height="1" fill="#CB000C"/>
<rect x="924" y="1176" width="1" height="1" fill="#CB000C"/>
<rect x="924" y="1184" width="1" height="1" fill="#CB000C"/>
<rect x="924" y="1192" width="1" height="1" fill="#CB000C"/>
<rect x="924" y="1200" width="1" height="1" fill="#CB000C"/>
<rect x="924" y="1208" width="1" height="1" fill="#CB000C"/>
<rect x="924" y="1216" width="1" height="1" fill="#CB000C"/>
<rect x="924" y="1224" width="1" height="1" fill="#CB000C"/>
<rect x="932" y="1088" width="1" height="1" fill="#CB000C"/>
<rect x="932" y="1096" width="1" height="1" fill="#CB000C"/>
<rect x="932" y="1104" width="1" height="1" fill="#CB000C"/>
<rect x="932" y="1112" width="1" height="1" fill="#CB000C"/>
<rect x="932" y="1120" width="1" height="1" fill="#CB000C"/>
<rect x="932" y="1128" width="1" height="1" fill="#CB000C"/>
<rect x="932" y="1136" width="1" height="1" fill="#CB000C"/>
<rect x="932" y="1144" width="1" height="1" fill="#CB000C"/>
<rect x="932" y="1152" width="1" height="1" fill="#CB000C"/>
<rect x="932" y="1160" width="1" height="1" fill="#CB000C"/>
<rect x="932" y="1168" width="1" height="1" fill="#CB000C"/>
<rect x="932" y="1176" width="1" height="1" fill="#CB000C"/>
<rect x="932" y="1184" width="1" height="1" fill="#CB000C"/>
<rect x="932" y="1192" width="1" height="1" fill="#CB000C"/>
<rect x="932" y="1200" width="1" height="1" fill="#CB000C"/>
<rect x="932" y="1208" width="1" height="1" fill="#CB000C"/>
<rect x="932" y="1216" width="1" height="1" fill="#CB000C"/>
<rect x="932" y="1224" width="1" height="1" fill="#CB000C"/>
<rect x="940" y="1088" width="1" height="1" fill="#CB000C"/>
<rect x="940" y="1096" width="1" height="1" fill="#CB000C"/>
<rect x="940" y="1104" width="1" height="1" fill="#CB000C"/>
<rect x="940" y="1112" width="1" height="1" fill="#CB000C"/>
<rect x="940" y="1120" width="1" height="1" fill="#CB000C"/>
<rect x="940" y="1128" width="1" height="1" fill="#CB000C"/>
<rect x="940" y="1136" width="1" height="1" fill="#CB000C"/>
<rect x="940" y="1144" width="1" height="1" fill="#CB000C"/>
<rect x="940" y="1152" width="1" height="1" fill="#CB000C"/>
<rect x="940" y="1160" width="1" height="1" fill="#CB000C"/>
<rect x="940" y="1168" width="1" height="1" fill="#CB000C"/>
<rect x="940" y="1176" width="1" height="1" fill="#CB000C"/>
<rect x="940" y="1184" width="1" height="1" fill="#CB000C"/>
<rect x="940" y="1192" width="1" height="1" fill="#CB000C"/>
<rect x="940" y="1200" width="1" height="1" fill="#CB000C"/>
<rect x="940" y="1208" width="1" height="1" fill="#CB000C"/>
<rect x="940" y="1216" width="1" height="1" fill="#CB000C"/>
<rect x="940" y="1224" width="1" height="1" fill="#CB000C"/>
<rect x="948" y="1088" width="1" height="1" fill="#CB000C"/>
<rect x="948" y="1096" width="1" height="1" fill="#CB000C"/>
<rect x="948" y="1104" width="1" height="1" fill="#CB000C"/>
<rect x="948" y="1112" width="1" height="1" fill="#CB000C"/>
<rect x="948" y="1120" width="1" height="1" fill="#CB000C"/>
<rect x="948" y="1128" width="1" height="1" fill="#CB000C"/>
<rect x="948" y="1136" width="1" height="1" fill="#CB000C"/>
<rect x="948" y="1144" width="1" height="1" fill="#CB000C"/>
<rect x="948" y="1152" width="1" height="1" fill="#CB000C"/>
<rect x="948" y="1160" width="1" height="1" fill="#CB000C"/>
<rect x="948" y="1168" width="1" height="1" fill="#CB000C"/>
<rect x="948" y="1176" width="1" height="1" fill="#CB000C"/>
<rect x="948" y="1184" width="1" height="1" fill="#CB000C"/>
<rect x="948" y="1192" width="1" height="1" fill="#CB000C"/>
<rect x="948" y="1200" width="1" height="1" fill="#CB000C"/>
<rect x="948" y="1208" width="1" height="1" fill="#CB000C"/>
<rect x="948" y="1216" width="1" height="1" fill="#CB000C"/>
<rect x="948" y="1224" width="1" height="1" fill="#CB000C"/>
<rect x="956" y="1088" width="1" height="1" fill="#CB000C"/>
<rect x="956" y="1096" width="1" height="1" fill="#CB000C"/>
<rect x="956" y="1104" width="1" height="1" fill="#CB000C"/>
<rect x="956" y="1112" width="1" height="1" fill="#CB000C"/>
<rect x="956" y="1120" width="1" height="1" fill="#CB000C"/>
<rect x="956" y="1128" width="1" height="1" fill="#CB000C"/>
<rect x="956" y="1136" width="1" height="1" fill="#CB000C"/>
<rect x="956" y="1144" width="1" height="1" fill="#CB000C"/>
<rect x="956" y="1152" width="1" height="1" fill="#CB000C"/>
<rect x="956" y="1160" width="1" height="1" fill="#CB000C"/>
<rect x="956" y="1168" width="1" height="1" fill="#CB000C"/>
<rect x="956" y="1176" width="1" height="1" fill="#CB000C"/>
<rect x="956" y="1184" width="1" height="1" fill="#CB000C"/>
<rect x="956" y="1192" width="1" height="1" fill="#CB000C"/>
<rect x="956" y="1200" width="1" height="1" fill="#CB000C"/>
<rect x="956" y="1208" width="1" height="1" fill="#CB000C"/>
<rect x="956" y="1216" width="1" height="1" fill="#CB000C"/>
<rect x="956" y="1224" width="1" height="1" fill="#CB000C"/>
<rect x="964" y="1088" width="1" height="1" fill="#CB000C"/>
<rect x="964" y="1096" width="1" height="1" fill="#CB000C"/>
<rect x="964" y="1104" width="1" height="1" fill="#CB000C"/>
<rect x="964" y="1112" width="1" height="1" fill="#CB000C"/>
<rect x="964" y="1120" width="1" height="1" fill="#CB000C"/>
<rect x="964" y="1128" width="1" height="1" fill="#CB000C"/>
<rect x="964" y="1136" width="1" height="1" fill="#CB000C"/>
<rect x="964" y="1144" width="1" height="1" fill="#CB000C"/>
<rect x="964" y="1152" width="1" height="1" fill="#CB000C"/>
<rect x="964" y="1160" width="1" height="1" fill="#CB000C"/>
<rect x="964" y="1168" width="1" height="1" fill="#CB000C"/>
<rect x="964" y="1176" width="1" height="1" fill="#CB000C"/>
<rect x="964" y="1184" width="1" height="1" fill="#CB000C"/>
<rect x="964" y="1192" width="1" height="1" fill="#CB000C"/>
<rect x="964" y="1200" width="1" height="1" fill="#CB000C"/>
<rect x="964" y="1208" width="1" height="1" fill="#CB000C"/>
<rect x="964" y="1216" width="1" height="1" fill="#CB000C"/>
<rect x="964" y="1224" width="1" height="1" fill="#CB000C"/>
<rect x="972" y="1088" width="1" height="1" fill="#CB000C"/>
<rect x="972" y="1096" width="1" height="1" fill="#CB000C"/>
<rect x="972" y="1104" width="1" height="1" fill="#CB000C"/>
<rect x="972" y="1112" width="1" height="1" fill="#CB000C"/>
<rect x="972" y="1120" width="1" height="1" fill="#CB000C"/>
<rect x="972" y="1128" width="1" height="1" fill="#CB000C"/>
<rect x="972" y="1136" width="1" height="1" fill="#CB000C"/>
<rect x="972" y="1144" width="1" height="1" fill="#CB000C"/>
<rect x="972" y="1152" width="1" height="1" fill="#CB000C"/>
<rect x="972" y="1160" width="1" height="1" fill="#CB000C"/>
<rect x="972" y="1168" width="1" height="1" fill="#CB000C"/>
<rect x="972" y="1176" width="1" height="1" fill="#CB000C"/>
<rect x="972" y="1184" width="1" height="1" fill="#CB000C"/>
<rect x="972" y="1192" width="1" height="1" fill="#CB000C"/>
<rect x="972" y="1200" width="1" height="1" fill="#CB000C"/>
<rect x="972" y="1208" width="1" height="1" fill="#CB000C"/>
<rect x="972" y="1216" width="1" height="1" fill="#CB000C"/>
<rect x="972" y="1224" width="1" height="1" fill="#CB000C"/>
<rect x="980" y="1088" width="1" height="1" fill="#CB000C"/>
<rect x="980" y="1096" width="1" height="1" fill="#CB000C"/>
<rect x="980" y="1104" width="1" height="1" fill="#CB000C"/>
<rect x="980" y="1112" width="1" height="1" fill="#CB000C"/>
<rect x="980" y="1120" width="1" height="1" fill="#CB000C"/>
<rect x="980" y="1128" width="1" height="1" fill="#CB000C"/>
<rect x="980" y="1136" width="1" height="1" fill="#CB000C"/>
<rect x="980" y="1144" width="1" height="1" fill="#CB000C"/>
<rect x="980" y="1152" width="1" height="1" fill="#CB000C"/>
<rect x="980" y="1160" width="1" height="1" fill="#CB000C"/>
<rect x="980" y="1168" width="1" height="1" fill="#CB000C"/>
<rect x="980" y="1176" width="1" height="1" fill="#CB000C"/>
<rect x="980" y="1184" width="1" height="1" fill="#CB000C"/>
<rect x="980" y="1192" width="1" height="1" fill="#CB000C"/>
<rect x="980" y="1200" width="1" height="1" fill="#CB000C"/>
<rect x="980" y="1208" width="1" height="1" fill="#CB000C"/>
<rect x="980" y="1216" width="1" height="1" fill="#CB000C"/>
<rect x="980" y="1224" width="1" height="1" fill="#CB000C"/>
<rect x="988" y="1088" width="1" height="1" fill="#CB000C"/>
<rect x="988" y="1096" width="1" height="1" fill="#CB000C"/>
<rect x="988" y="1104" width="1" height="1" fill="#CB000C"/>
<rect x="988" y="1112" width="1" height="1" fill="#CB000C"/>
<rect x="988" y="1120" width="1" height="1" fill="#CB000C"/>
<rect x="988" y="1128" width="1" height="1" fill="#CB000C"/>
<rect x="988" y="1136" width="1" height="1" fill="#CB000C"/>
<rect x="988" y="1144" width="1" height="1" fill="#CB000C"/>
<rect x="988" y="1152" width="1" height="1" fill="#CB000C"/>
<rect x="988" y="1160" width="1" height="1" fill="#CB000C"/>
<rect x="988" y="1168" width="1" height="1" fill="#CB000C"/>
<rect x="988" y="1176" width="1" height="1" fill="#CB000C"/>
<rect x="988" y="1184" width="1" height="1" fill="#CB000C"/>
<rect x="988" y="1192" width="1" height="1" fill="#CB000C"/>
<rect x="988" y="1200" width="1" height="1" fill="#CB000C"/>
<rect x="988" y="1208" width="1" height="1" fill="#CB000C"/>
<rect x="988" y="1216" width="1" height="1" fill="#CB000C"/>
<rect x="988" y="1224" width="1" height="1" fill="#CB000C"/>
<rect x="996" y="1088" width="1" height="1" fill="#CB000C"/>
<rect x="996" y="1096" width="1" height="1" fill="#CB000C"/>
<rect x="996" y="1104" width="1" height="1" fill="#CB000C"/>
<rect x="996" y="1112" width="1" height="1" fill="#CB000C"/>
<rect x="996" y="1120" width="1" height="1" fill="#CB000C"/>
<rect x="996" y="1128" width="1" height="1" fill="#CB000C"/>
<rect x="996" y="1136" width="1" height="1" fill="#CB000C"/>
<rect x="996" y="1144" width="1" height="1" fill="#CB000C"/>
<rect x="996" y="1152" width="1" height="1" fill="#CB000C"/>
<rect x="996" y="1160" width="1" height="1" fill="#CB000C"/>
<rect x="996" y="1168" width="1" height="1" fill="#CB000C"/>
<rect x="996" y="1176" width="1" height="1" fill="#CB000C"/>
<rect x="996" y="1184" width="1" height="1" fill="#CB000C"/>
<rect x="996" y="1192" width="1" height="1" fill="#CB000C"/>
<rect x="996" y="1200" width="1" height="1" fill="#CB000C"/>
<rect x="996" y="1208" width="1" height="1" fill="#CB000C"/>
<rect x="996" y="1216" width="1" height="1" fill="#CB000C"/>
<rect x="996" y="1224" width="1" height="1" fill="#CB000C"/>
<rect x="1004" y="1088" width="1" height="1" fill="#CB000C"/>
<rect x="1004" y="1096" width="1" height="1" fill="#CB000C"/>
<rect x="1004" y="1104" width="1" height="1" fill="#CB000C"/>
<rect x="1004" y="1112" width="1" height="1" fill="#CB000C"/>
<rect x="1004" y="1120" width="1" height="1" fill="#CB000C"/>
<rect x="1004" y="1128" width="1" height="1" fill="#CB000C"/>
<rect x="1004" y="1136" width="1" height="1" fill="#CB000C"/>
<rect x="1004" y="1144" width="1" height="1" fill="#CB000C"/>
<rect x="1004" y="1152" width="1" height="1" fill="#CB000C"/>
<rect x="1004" y="1160" width="1" height="1" fill="#CB000C"/>
<rect x="1004" y="1168" width="1" height="1" fill="#CB000C"/>
<rect x="1004" y="1176" width="1" height="1" fill="#CB000C"/>
<rect x="1004" y="1184" width="1" height="1" fill="#CB000C"/>
<rect x="1004" y="1192" width="1" height="1" fill="#CB000C"/>
<rect x="1004" y="1200" width="1" height="1" fill="#CB000C"/>
<rect x="1004" y="1208" width="1" height="1" fill="#CB000C"/>
<rect x="1004" y="1216" width="1" height="1" fill="#CB000C"/>
<rect x="1004" y="1224" width="1" height="1" fill="#CB000C"/>
<rect x="324" y="408" width="136" height="1" fill="#CB000C"/>
<rect x="324" y="416" width="136" height="1" fill="#CB000C"/>
<rect x="324" y="424" width="136" height="1" fill="#CB000C"/>
<rect x="324" y="432" width="136" height="1" fill="#CB000C"/>
<rect x="324" y="440" width="136" height="1" fill="#CB000C"/>
<rect x="324" y="448" width="136" height="1" fill="#CB000C"/>
<rect x="324" y="456" width="136" height="1" fill="#CB000C"/>
<rect x="324" y="464" width="136" height="1" fill="#CB000C"/>
<rect x="324" y="472" width="136" height="1" fill="#CB000C"/>
<rect x="324" y="480" width="136" height="1" fill="#CB000C"/>
<rect x="324" y="488" width="136" height="1" fill="#CB000C"/>
<rect x="324" y="496" width="136" height="1" fill="#CB000C"/>
<rect x="324" y="504" width="136" height="1" fill="#CB000C"/>
<rect x="324" y="512" width="136" height="1" fill="#CB000C"/>
<rect x="324" y="520" width="136" height="1" fill="#CB000C"/>
<rect x="324" y="528" width="136" height="1" fill="#CB000C"/>
<rect x="324" y="536" width="136" height="1" fill="#CB000C"/>
<rect x="324" y="544" width="136" height="1" fill="#CB000C"/>
<mask id="mask0" mask-type="alpha" maskUnits="userSpaceOnUse" x="1140" y="408" width="136" height="136">
<rect x="1140" y="408" width="136" height="136" fill="white"/>
</mask>
<g mask="url(#mask0)">
<rect x="1053.57" y="499.834" width="291" height="1" transform="rotate(-45 1053.57 499.834)" fill="#CB000C"/>
<rect x="1059.22" y="505.491" width="291" height="1" transform="rotate(-45 1059.22 505.491)" fill="#CB000C"/>
<rect x="1064.88" y="511.148" width="291" height="1" transform="rotate(-45 1064.88 511.148)" fill="#CB000C"/>
<rect x="1070.54" y="516.805" width="291" height="1" transform="rotate(-45 1070.54 516.805)" fill="#CB000C"/>
<rect x="1076.19" y="522.462" width="291" height="1" transform="rotate(-45 1076.19 522.462)" fill="#CB000C"/>
<rect x="1081.85" y="528.119" width="291" height="1" transform="rotate(-45 1081.85 528.119)" fill="#CB000C"/>
<rect x="1087.51" y="533.776" width="291" height="1" transform="rotate(-45 1087.51 533.776)" fill="#CB000C"/>
<rect x="1093.16" y="539.432" width="291" height="1" transform="rotate(-45 1093.16 539.432)" fill="#CB000C"/>
<rect x="1098.82" y="545.089" width="291" height="1" transform="rotate(-45 1098.82 545.089)" fill="#CB000C"/>
<rect x="1104.48" y="550.746" width="291" height="1" transform="rotate(-45 1104.48 550.746)" fill="#CB000C"/>
<rect x="1110.14" y="556.403" width="291" height="1" transform="rotate(-45 1110.14 556.403)" fill="#CB000C"/>
<rect x="1115.79" y="562.06" width="291" height="1" transform="rotate(-45 1115.79 562.06)" fill="#CB000C"/>
<rect x="1121.45" y="567.717" width="291" height="1" transform="rotate(-45 1121.45 567.717)" fill="#CB000C"/>
<rect x="1127.11" y="573.374" width="291" height="1" transform="rotate(-45 1127.11 573.374)" fill="#CB000C"/>
<rect x="1132.76" y="579.03" width="291" height="1" transform="rotate(-45 1132.76 579.03)" fill="#CB000C"/>
<rect x="1138.42" y="584.687" width="291" height="1" transform="rotate(-45 1138.42 584.687)" fill="#CB000C"/>
<rect x="1144.08" y="590.344" width="291" height="1" transform="rotate(-45 1144.08 590.344)" fill="#CB000C"/>
<rect x="1149.73" y="596.001" width="291" height="1" transform="rotate(-45 1149.73 596.001)" fill="#CB000C"/>
<rect x="1155.39" y="601.658" width="291" height="1" transform="rotate(-45 1155.39 601.658)" fill="#CB000C"/>
<rect x="1161.05" y="607.315" width="291" height="1" transform="rotate(-45 1161.05 607.315)" fill="#CB000C"/>
<rect x="1166.7" y="612.972" width="291" height="1" transform="rotate(-45 1166.7 612.972)" fill="#CB000C"/>
<rect x="1172.36" y="618.628" width="291" height="1" transform="rotate(-45 1172.36 618.628)" fill="#CB000C"/>
<rect x="1178.02" y="624.285" width="291" height="1" transform="rotate(-45 1178.02 624.285)" fill="#CB000C"/>
<rect x="1183.67" y="629.942" width="291" height="1" transform="rotate(-45 1183.67 629.942)" fill="#CB000C"/>
<rect x="1189.33" y="635.599" width="291" height="1" transform="rotate(-45 1189.33 635.599)" fill="#CB000C"/>
<rect x="1194.99" y="641.256" width="291" height="1" transform="rotate(-45 1194.99 641.256)" fill="#CB000C"/>
<rect x="1200.64" y="646.913" width="291" height="1" transform="rotate(-45 1200.64 646.913)" fill="#CB000C"/>
<rect x="1206.3" y="652.57" width="291" height="1" transform="rotate(-45 1206.3 652.57)" fill="#CB000C"/>
<rect x="1211.96" y="658.226" width="291" height="1" transform="rotate(-45 1211.96 658.226)" fill="#CB000C"/>
</g>
<mask id="mask1" mask-type="alpha" maskUnits="userSpaceOnUse" x="188" y="0" width="136" height="136">
<rect x="188" width="136" height="136" fill="white"/>
</mask>
<g mask="url(#mask1)">
<rect x="101.566" y="91.8345" width="291" height="1" transform="rotate(-45 101.566 91.8345)" fill="#CB000C"/>
<rect x="107.223" y="97.4913" width="291" height="1" transform="rotate(-45 107.223 97.4913)" fill="#CB000C"/>
<rect x="112.88" y="103.148" width="291" height="1" transform="rotate(-45 112.88 103.148)" fill="#CB000C"/>
<rect x="118.537" y="108.805" width="291" height="1" transform="rotate(-45 118.537 108.805)" fill="#CB000C"/>
<rect x="124.194" y="114.462" width="291" height="1" transform="rotate(-45 124.194 114.462)" fill="#CB000C"/>
<rect x="129.851" y="120.119" width="291" height="1" transform="rotate(-45 129.851 120.119)" fill="#CB000C"/>
<rect x="135.508" y="125.776" width="291" height="1" transform="rotate(-45 135.508 125.776)" fill="#CB000C"/>
<rect x="141.164" y="131.432" width="291" height="1" transform="rotate(-45 141.164 131.432)" fill="#CB000C"/>
<rect x="146.821" y="137.089" width="291" height="1" transform="rotate(-45 146.821 137.089)" fill="#CB000C"/>
<rect x="152.478" y="142.746" width="291" height="1" transform="rotate(-45 152.478 142.746)" fill="#CB000C"/>
<rect x="158.135" y="148.403" width="291" height="1" transform="rotate(-45 158.135 148.403)" fill="#CB000C"/>
<rect x="163.792" y="154.06" width="291" height="1" transform="rotate(-45 163.792 154.06)" fill="#CB000C"/>
<rect x="169.449" y="159.717" width="291" height="1" transform="rotate(-45 169.449 159.717)" fill="#CB000C"/>
<rect x="175.105" y="165.374" width="291" height="1" transform="rotate(-45 175.105 165.374)" fill="#CB000C"/>
<rect x="180.762" y="171.03" width="291" height="1" transform="rotate(-45 180.762 171.03)" fill="#CB000C"/>
<rect x="186.419" y="176.687" width="291" height="1" transform="rotate(-45 186.419 176.687)" fill="#CB000C"/>
<rect x="192.076" y="182.344" width="291" height="1" transform="rotate(-45 192.076 182.344)" fill="#CB000C"/>
<rect x="197.733" y="188.001" width="291" height="1" transform="rotate(-45 197.733 188.001)" fill="#CB000C"/>
<rect x="203.39" y="193.658" width="291" height="1" transform="rotate(-45 203.39 193.658)" fill="#CB000C"/>
<rect x="209.047" y="199.315" width="291" height="1" transform="rotate(-45 209.047 199.315)" fill="#CB000C"/>
<rect x="214.703" y="204.972" width="291" height="1" transform="rotate(-45 214.703 204.972)" fill="#CB000C"/>
<rect x="220.36" y="210.628" width="291" height="1" transform="rotate(-45 220.36 210.628)" fill="#CB000C"/>
<rect x="226.017" y="216.285" width="291" height="1" transform="rotate(-45 226.017 216.285)" fill="#CB000C"/>
<rect x="231.674" y="221.942" width="291" height="1" transform="rotate(-45 231.674 221.942)" fill="#CB000C"/>
<rect x="237.331" y="227.599" width="291" height="1" transform="rotate(-45 237.331 227.599)" fill="#CB000C"/>
<rect x="242.988" y="233.256" width="291" height="1" transform="rotate(-45 242.988 233.256)" fill="#CB000C"/>
<rect x="248.645" y="238.913" width="291" height="1" transform="rotate(-45 248.645 238.913)" fill="#CB000C"/>
<rect x="254.302" y="244.57" width="291" height="1" transform="rotate(-45 254.302 244.57)" fill="#CB000C"/>
<rect x="259.958" y="250.226" width="291" height="1" transform="rotate(-45 259.958 250.226)" fill="#CB000C"/>
</g>
<rect x="1004" y="272" width="136" height="136" fill="#CB000C"/>
<rect x="1412" y="816" width="136" height="136" fill="#212121"/>
<rect x="52" y="952" width="136" height="136" fill="#CB000C"/>
<rect x="52" y="544" width="136" height="136" fill="#212121"/>
</svg>
