<svg width="48" height="48" viewBox="0 0 48 48" fill="none" xmlns="http://www.w3.org/2000/svg">
<rect width="48" height="48" fill="#212121"/>
<path d="M23.9875 10.3844C16.2594 10.3813 10 16.6375 10 24.3594C10 30.4657 13.9156 35.6563 19.3687 37.5625C20.1031 37.7469 19.9906 37.225 19.9906 36.8688V34.4469C15.75 34.9438 15.5781 32.1375 15.2937 31.6688C14.7188 30.6875 13.3594 30.4375 13.7656 29.9688C14.7312 29.4719 15.7156 30.0938 16.8562 31.7782C17.6812 33 19.2906 32.7938 20.1062 32.5907C20.2844 31.8563 20.6656 31.2 21.1906 30.6906C16.7969 29.9031 14.9656 27.2219 14.9656 24.0344C14.9656 22.4875 15.475 21.0657 16.475 19.9188C15.8375 18.0282 16.5344 16.4094 16.6281 16.1688C18.4438 16.0063 20.3312 17.4688 20.4781 17.5844C21.5094 17.3063 22.6875 17.1594 24.0063 17.1594C25.3313 17.1594 26.5125 17.3125 27.5531 17.5938C27.9062 17.325 29.6562 16.0688 31.3438 16.2219C31.4344 16.4625 32.1156 18.0438 31.5156 19.9094C32.5281 21.0594 33.0438 22.4938 33.0438 24.0438C33.0438 27.2375 31.2 29.9219 26.7938 30.6969C27.1712 31.0681 27.4708 31.5107 27.6753 31.999C27.8797 32.4872 27.9848 33.0113 27.9844 33.5406V37.0563C28.0094 37.3375 27.9844 37.6157 28.4531 37.6157C33.9875 35.75 37.9719 30.5219 37.9719 24.3625C37.9719 16.6375 31.7094 10.3844 23.9875 10.3844Z" fill="#FAFAFA"/>
</svg>
