<svg width="1600" height="1088" viewBox="0 0 1600 1088" fill="none" xmlns="http://www.w3.org/2000/svg">
<path d="M0 136H1600" stroke="#212121"/>
<path d="M0 272H1600" stroke="#212121"/>
<path d="M0 408H1600" stroke="#212121"/>
<path d="M0 544H1600" stroke="#212121"/>
<path d="M0 680H1600" stroke="#212121"/>
<path d="M0 816H1600" stroke="#212121"/>
<path d="M0 952H1600" stroke="#212121"/>
<path d="M324 1088L324 4.03225e-05" stroke="#212121"/>
<path d="M188 952L188 136" stroke="#212121"/>
<path d="M596 952V136" stroke="#212121"/>
<path d="M732 816V272" stroke="#212121"/>
<path d="M868 1088V4.03225e-05" stroke="#212121"/>
<path d="M1004 1088V4.03225e-05" stroke="#212121"/>
<path d="M1140 816V272" stroke="#212121"/>
<path d="M1412 1088V4.03225e-05" stroke="#212121"/>
<path d="M868 128V144" stroke="#BDBDBD"/>
<path d="M876 136L860 136" stroke="#BDBDBD"/>
<path d="M1276 536V552" stroke="#BDBDBD"/>
<path d="M1284 544L1268 544" stroke="#BDBDBD"/>
<path d="M1412 944V960" stroke="#BDBDBD"/>
<path d="M1420 952L1404 952" stroke="#BDBDBD"/>
<path d="M868 808V824" stroke="#BDBDBD"/>
<path d="M876 816L860 816" stroke="#BDBDBD"/>
<path d="M324 1072V1088" stroke="#BDBDBD"/>
<path d="M332 1080L316 1080" stroke="#BDBDBD"/>
<path d="M324 400V416" stroke="#BDBDBD"/>
<path d="M332 408L316 408" stroke="#BDBDBD"/>
<path d="M732 264V280" stroke="#BDBDBD"/>
<path d="M740 272L724 272" stroke="#BDBDBD"/>
</svg>
