<svg width="163" height="128" viewBox="0 0 163 128" fill="none" xmlns="http://www.w3.org/2000/svg">
<path d="M9.6 115.85V96.0096H14.16L14.64 99.7296C15.36 98.4496 16.3333 97.4363 17.56 96.6896C18.8133 95.9163 20.28 95.5296 21.96 95.5296V100.93H20.52C19.4 100.93 18.4 101.103 17.52 101.45C16.64 101.796 15.9467 102.396 15.44 103.25C14.96 104.103 14.72 105.29 14.72 106.81V115.85H9.6ZM34.7478 116.33C32.7478 116.33 30.9745 115.903 29.4278 115.05C27.8811 114.196 26.6678 112.996 25.7878 111.45C24.9078 109.903 24.4678 108.116 24.4678 106.09C24.4678 104.036 24.8945 102.21 25.7478 100.61C26.6278 99.0096 27.8278 97.7696 29.3478 96.8896C30.8945 95.9829 32.7078 95.5296 34.7878 95.5296C36.7345 95.5296 38.4545 95.9563 39.9478 96.8096C41.4411 97.6629 42.6011 98.8363 43.4278 100.33C44.2811 101.796 44.7078 103.436 44.7078 105.25C44.7078 105.543 44.6945 105.85 44.6678 106.17C44.6678 106.49 44.6545 106.823 44.6278 107.17H29.5478C29.6545 108.716 30.1878 109.93 31.1478 110.81C32.1345 111.69 33.3211 112.13 34.7078 112.13C35.7478 112.13 36.6145 111.903 37.3078 111.45C38.0278 110.97 38.5611 110.356 38.9078 109.61H44.1078C43.7345 110.863 43.1078 112.01 42.2278 113.05C41.3745 114.063 40.3078 114.863 39.0278 115.45C37.7745 116.036 36.3478 116.33 34.7478 116.33ZM34.7878 99.6896C33.5345 99.6896 32.4278 100.05 31.4678 100.77C30.5078 101.463 29.8945 102.53 29.6278 103.97H39.5078C39.4278 102.663 38.9478 101.623 38.0678 100.85C37.1878 100.076 36.0945 99.6896 34.7878 99.6896ZM57.2141 116.33C55.4541 116.33 53.9074 116.05 52.5741 115.49C51.2407 114.903 50.1741 114.103 49.3741 113.09C48.5741 112.076 48.0941 110.903 47.9341 109.57H53.0941C53.2541 110.343 53.6807 111.01 54.3741 111.57C55.0941 112.103 56.0141 112.37 57.1341 112.37C58.2541 112.37 59.0674 112.143 59.5741 111.69C60.1074 111.236 60.3741 110.716 60.3741 110.13C60.3741 109.276 60.0007 108.703 59.2541 108.41C58.5074 108.09 57.4674 107.783 56.1341 107.49C55.2807 107.303 54.4141 107.076 53.5341 106.81C52.6541 106.543 51.8407 106.21 51.0941 105.81C50.3741 105.383 49.7874 104.85 49.3341 104.21C48.8807 103.543 48.6541 102.73 48.6541 101.77C48.6541 100.01 49.3474 98.5296 50.7341 97.3296C52.1474 96.1296 54.1207 95.5296 56.6541 95.5296C59.0007 95.5296 60.8674 96.0763 62.2541 97.1696C63.6674 98.2629 64.5074 99.7696 64.7741 101.69H59.9341C59.6407 100.223 58.5341 99.4896 56.6141 99.4896C55.6541 99.4896 54.9074 99.6763 54.3741 100.05C53.8674 100.423 53.6141 100.89 53.6141 101.45C53.6141 102.036 54.0007 102.503 54.7741 102.85C55.5474 103.196 56.5741 103.516 57.8541 103.81C59.2407 104.13 60.5074 104.49 61.6541 104.89C62.8274 105.263 63.7607 105.836 64.4541 106.61C65.1474 107.356 65.4941 108.436 65.4941 109.85C65.5207 111.076 65.2007 112.183 64.5341 113.17C63.8674 114.156 62.9074 114.93 61.6541 115.49C60.4007 116.05 58.9207 116.33 57.2141 116.33ZM78.2447 115.85C76.1647 115.85 74.498 115.343 73.2447 114.33C71.9914 113.316 71.3647 111.516 71.3647 108.93V100.29H67.9647V96.0096H71.3647L71.9647 90.6896H76.4847V96.0096H81.8447V100.29H76.4847V108.97C76.4847 109.93 76.6847 110.596 77.0847 110.97C77.5114 111.316 78.2314 111.49 79.2447 111.49H81.7247V115.85H78.2447ZM86.2406 115.85V87.0496H91.3606V115.85H86.2406ZM106.232 116.33C104.232 116.33 102.459 115.903 100.912 115.05C99.3655 114.196 98.1522 112.996 97.2722 111.45C96.3922 109.903 95.9522 108.116 95.9522 106.09C95.9522 104.036 96.3789 102.21 97.2322 100.61C98.1122 99.0096 99.3122 97.7696 100.832 96.8896C102.379 95.9829 104.192 95.5296 106.272 95.5296C108.219 95.5296 109.939 95.9563 111.432 96.8096C112.926 97.6629 114.086 98.8363 114.912 100.33C115.766 101.796 116.192 103.436 116.192 105.25C116.192 105.543 116.179 105.85 116.152 106.17C116.152 106.49 116.139 106.823 116.112 107.17H101.032C101.139 108.716 101.672 109.93 102.632 110.81C103.619 111.69 104.806 112.13 106.192 112.13C107.232 112.13 108.099 111.903 108.792 111.45C109.512 110.97 110.046 110.356 110.392 109.61H115.592C115.219 110.863 114.592 112.01 113.712 113.05C112.859 114.063 111.792 114.863 110.512 115.45C109.259 116.036 107.832 116.33 106.232 116.33ZM106.272 99.6896C105.019 99.6896 103.912 100.05 102.952 100.77C101.992 101.463 101.379 102.53 101.112 103.97H110.992C110.912 102.663 110.432 101.623 109.552 100.85C108.672 100.076 107.579 99.6896 106.272 99.6896ZM128.698 116.33C126.938 116.33 125.392 116.05 124.058 115.49C122.725 114.903 121.658 114.103 120.858 113.09C120.058 112.076 119.578 110.903 119.418 109.57H124.578C124.738 110.343 125.165 111.01 125.858 111.57C126.578 112.103 127.498 112.37 128.618 112.37C129.738 112.37 130.552 112.143 131.058 111.69C131.592 111.236 131.858 110.716 131.858 110.13C131.858 109.276 131.485 108.703 130.738 108.41C129.992 108.09 128.952 107.783 127.618 107.49C126.765 107.303 125.898 107.076 125.018 106.81C124.138 106.543 123.325 106.21 122.578 105.81C121.858 105.383 121.272 104.85 120.818 104.21C120.365 103.543 120.138 102.73 120.138 101.77C120.138 100.01 120.832 98.5296 122.218 97.3296C123.632 96.1296 125.605 95.5296 128.138 95.5296C130.485 95.5296 132.352 96.0763 133.738 97.1696C135.152 98.2629 135.992 99.7696 136.258 101.69H131.418C131.125 100.223 130.018 99.4896 128.098 99.4896C127.138 99.4896 126.392 99.6763 125.858 100.05C125.352 100.423 125.098 100.89 125.098 101.45C125.098 102.036 125.485 102.503 126.258 102.85C127.032 103.196 128.058 103.516 129.338 103.81C130.725 104.13 131.992 104.49 133.138 104.89C134.312 105.263 135.245 105.836 135.938 106.61C136.632 107.356 136.978 108.436 136.978 109.85C137.005 111.076 136.685 112.183 136.018 113.17C135.352 114.156 134.392 114.93 133.138 115.49C131.885 116.05 130.405 116.33 128.698 116.33ZM149.714 116.33C147.954 116.33 146.407 116.05 145.074 115.49C143.741 114.903 142.674 114.103 141.874 113.09C141.074 112.076 140.594 110.903 140.434 109.57H145.594C145.754 110.343 146.181 111.01 146.874 111.57C147.594 112.103 148.514 112.37 149.634 112.37C150.754 112.37 151.567 112.143 152.074 111.69C152.607 111.236 152.874 110.716 152.874 110.13C152.874 109.276 152.501 108.703 151.754 108.41C151.007 108.09 149.967 107.783 148.634 107.49C147.781 107.303 146.914 107.076 146.034 106.81C145.154 106.543 144.341 106.21 143.594 105.81C142.874 105.383 142.287 104.85 141.834 104.21C141.381 103.543 141.154 102.73 141.154 101.77C141.154 100.01 141.847 98.5296 143.234 97.3296C144.647 96.1296 146.621 95.5296 149.154 95.5296C151.501 95.5296 153.367 96.0763 154.754 97.1696C156.167 98.2629 157.007 99.7696 157.274 101.69H152.434C152.141 100.223 151.034 99.4896 149.114 99.4896C148.154 99.4896 147.407 99.6763 146.874 100.05C146.367 100.423 146.114 100.89 146.114 101.45C146.114 102.036 146.501 102.503 147.274 102.85C148.047 103.196 149.074 103.516 150.354 103.81C151.741 104.13 153.007 104.49 154.154 104.89C155.327 105.263 156.261 105.836 156.954 106.61C157.647 107.356 157.994 108.436 157.994 109.85C158.021 111.076 157.701 112.183 157.034 113.17C156.367 114.156 155.407 114.93 154.154 115.49C152.901 116.05 151.421 116.33 149.714 116.33Z" fill="black"/>
<path fill-rule="evenodd" clip-rule="evenodd" d="M18.3712 36.0746L84.5897 68.309C86.1054 69.0469 87.8788 69.0345 89.3841 68.2757L136.171 44.6887C137.502 44.0174 138.038 42.3938 137.366 41.0623C136.907 40.152 135.975 39.5777 134.955 39.5777H86.9952L89.6334 38.2888C95.3797 35.4814 97.7622 28.5472 94.9548 22.8009C93.8806 20.6022 92.1375 18.8003 89.9756 17.6538C77.3292 10.947 62.2636 10.5842 49.309 16.6745L18.4042 31.2035C17.0547 31.838 16.4751 33.4462 17.1095 34.7957C17.3717 35.3535 17.817 35.8048 18.3712 36.0746Z" fill="#CB000C"/>
<path fill-rule="evenodd" clip-rule="evenodd" d="M89.1999 68.3621L136.168 44.6887C137.5 44.0175 138.035 42.394 137.364 41.0624C136.905 40.152 135.973 39.5776 134.953 39.5776H86.9951V65.2876V68.8384L87.1504 68.8333C87.8575 68.8099 88.5535 68.6499 89.1999 68.3621Z" fill="#9B020B"/>
</svg>
