<svg width="92" height="43" viewBox="0 0 92 43" fill="none" xmlns="http://www.w3.org/2000/svg">
<path fill-rule="evenodd" clip-rule="evenodd" d="M1.92523 18.1889L51.5541 42.2573C52.6901 42.8082 54.0191 42.799 55.1473 42.2323L90.2126 24.6207C91.2106 24.1195 91.6117 22.9072 91.1086 21.913C90.7647 21.2333 90.0657 20.8045 89.3017 20.8045H53.3569L55.3342 19.8422C59.6409 17.746 61.4265 12.5684 59.3224 8.27782C58.5173 6.63611 57.2109 5.29069 55.5906 4.43463C46.1125 -0.573074 34.8213 -0.843966 25.1122 3.70341L1.94998 14.5518C0.938586 15.0255 0.504142 16.2263 0.979622 17.234C1.17617 17.6505 1.50985 17.9874 1.92523 18.1889Z" fill="#CB000C"/>
<path fill-rule="evenodd" clip-rule="evenodd" d="M54.6524 42.4924L89.8539 24.8163C90.8519 24.3151 91.2531 23.1029 90.7501 22.1086C90.4062 21.4288 89.7072 21 88.9431 21H53V40.1968V42.8481L53.1164 42.8442C53.6464 42.8268 54.168 42.7073 54.6524 42.4924Z" fill="#9B020B"/>
</svg>
