<svg width="1006" height="200" viewBox="0 0 1006 200" fill="none" xmlns="http://www.w3.org/2000/svg">
<path d="M0.0656738 196V61.584H30.9597L34.2117 86.787C39.0897 78.115 45.684 71.2497 53.9947 66.191C62.486 60.9517 72.4227 58.332 83.8047 58.332V94.917H74.0487C66.4607 94.917 59.6857 96.0913 53.7237 98.44C47.7617 100.789 43.0643 104.854 39.6317 110.635C36.3797 116.416 34.7537 124.456 34.7537 134.754V196H0.0656738Z" fill="#CB000C"/>
<path d="M170.442 199.252C156.892 199.252 144.878 196.361 134.399 190.58C123.92 184.799 115.7 176.669 109.738 166.19C103.776 155.711 100.795 143.607 100.795 129.876C100.795 115.965 103.686 103.589 109.467 92.749C115.429 81.909 123.559 73.508 133.857 67.546C144.336 61.4033 156.621 58.332 170.713 58.332C183.902 58.332 195.555 61.2227 205.672 67.004C215.789 72.7853 223.648 80.7347 229.249 90.852C235.03 100.789 237.921 111.9 237.921 124.185C237.921 126.172 237.831 128.25 237.65 130.418C237.65 132.586 237.56 134.844 237.379 137.193H135.212C135.935 147.672 139.548 155.892 146.052 161.854C152.737 167.816 160.776 170.797 170.171 170.797C177.217 170.797 183.089 169.261 187.786 166.19C192.664 162.938 196.277 158.783 198.626 153.724H233.856C231.327 162.215 227.081 169.984 221.119 177.03C215.338 183.895 208.111 189.315 199.439 193.29C190.948 197.265 181.282 199.252 170.442 199.252ZM170.713 86.516C162.222 86.516 154.724 88.955 148.22 93.833C141.716 98.5303 137.561 105.757 135.754 115.513H202.691C202.149 106.66 198.897 99.6143 192.935 94.375C186.973 89.1357 179.566 86.516 170.713 86.516Z" fill="#CB000C"/>
<path d="M322.651 199.252C310.727 199.252 300.248 197.355 291.215 193.561C282.182 189.586 274.955 184.166 269.535 177.301C264.115 170.436 260.863 162.486 259.779 153.453H294.738C295.822 158.692 298.713 163.209 303.41 167.003C308.288 170.616 314.521 172.423 322.109 172.423C329.697 172.423 335.207 170.887 338.64 167.816C342.253 164.745 344.06 161.222 344.06 157.247C344.06 151.466 341.531 147.581 336.472 145.594C331.413 143.426 324.367 141.348 315.334 139.361C309.553 138.096 303.681 136.561 297.719 134.754C291.757 132.947 286.247 130.689 281.188 127.979C276.31 125.088 272.335 121.475 269.264 117.139C266.193 112.622 264.657 107.112 264.657 100.608C264.657 88.684 269.354 78.657 278.749 70.527C288.324 62.397 301.694 58.332 318.857 58.332C334.756 58.332 347.402 62.0357 356.797 69.443C366.372 76.8503 372.063 87.058 373.87 100.066H341.079C339.092 90.1293 331.594 85.161 318.586 85.161C312.082 85.161 307.023 86.4257 303.41 88.955C299.977 91.4844 298.261 94.646 298.261 98.44C298.261 102.415 300.881 105.576 306.12 107.925C311.359 110.274 318.315 112.442 326.987 114.429C336.382 116.597 344.963 119.036 352.732 121.746C360.681 124.275 367.005 128.16 371.702 133.399C376.399 138.458 378.748 145.775 378.748 155.35C378.929 163.661 376.761 171.158 372.244 177.843C367.727 184.528 361.223 189.767 352.732 193.561C344.241 197.355 334.214 199.252 322.651 199.252Z" fill="#CB000C"/>
<path d="M465.133 196C451.041 196 439.75 192.567 431.258 185.702C422.767 178.837 418.521 166.642 418.521 149.117V90.581H395.486V61.584H418.521L422.586 25.541H453.209V61.584H489.523V90.581H453.209V149.388C453.209 155.892 454.564 160.409 457.274 162.938C460.165 165.287 465.043 166.461 471.908 166.461H488.71V196H465.133Z" fill="#CB000C"/>
<path d="M519.306 196V0.880005H553.994V196H519.306Z" fill="#CB000C"/>
<path d="M654.749 199.252C641.199 199.252 629.184 196.361 618.706 190.58C608.227 184.799 600.007 176.669 594.045 166.19C588.083 155.711 585.102 143.607 585.102 129.876C585.102 115.965 587.992 103.589 593.774 92.749C599.736 81.909 607.866 73.508 618.164 67.546C628.642 61.4033 640.928 58.332 655.02 58.332C668.208 58.332 679.861 61.2227 689.979 67.004C700.096 72.7853 707.955 80.7347 713.556 90.852C719.337 100.789 722.228 111.9 722.228 124.185C722.228 126.172 722.137 128.25 721.957 130.418C721.957 132.586 721.866 134.844 721.686 137.193H619.519C620.241 147.672 623.855 155.892 630.359 161.854C637.043 167.816 645.083 170.797 654.478 170.797C661.524 170.797 667.395 169.261 672.093 166.19C676.971 162.938 680.584 158.783 682.933 153.724H718.163C715.633 162.215 711.388 169.984 705.426 177.03C699.644 183.895 692.418 189.315 683.746 193.29C675.254 197.265 665.589 199.252 654.749 199.252ZM655.02 86.516C646.528 86.516 639.031 88.955 632.527 93.833C626.023 98.5303 621.867 105.757 620.061 115.513H686.998C686.456 106.66 683.204 99.6143 677.242 94.375C671.28 89.1357 663.872 86.516 655.02 86.516Z" fill="#CB000C"/>
<path d="M806.958 199.252C795.034 199.252 784.555 197.355 775.522 193.561C766.488 189.586 759.262 184.166 753.842 177.301C748.422 170.436 745.17 162.486 744.086 153.453H779.045C780.129 158.692 783.019 163.209 787.717 167.003C792.595 170.616 798.828 172.423 806.416 172.423C814.004 172.423 819.514 170.887 822.947 167.816C826.56 164.745 828.367 161.222 828.367 157.247C828.367 151.466 825.837 147.581 820.779 145.594C815.72 143.426 808.674 141.348 799.641 139.361C793.859 138.096 787.988 136.561 782.026 134.754C776.064 132.947 770.553 130.689 765.495 127.979C760.617 125.088 756.642 121.475 753.571 117.139C750.499 112.622 748.964 107.112 748.964 100.608C748.964 88.684 753.661 78.657 763.056 70.527C772.631 62.397 786 58.332 803.164 58.332C819.062 58.332 831.709 62.0357 841.104 69.443C850.679 76.8503 856.37 87.058 858.177 100.066H825.386C823.398 90.1293 815.901 85.161 802.893 85.161C796.389 85.161 791.33 86.4257 787.717 88.955C784.284 91.4844 782.568 94.646 782.568 98.44C782.568 102.415 785.187 105.576 790.427 107.925C795.666 110.274 802.622 112.442 811.294 114.429C820.688 116.597 829.27 119.036 837.039 121.746C844.988 124.275 851.311 128.16 856.009 133.399C860.706 138.458 863.055 145.775 863.055 155.35C863.235 163.661 861.067 171.158 856.551 177.843C852.034 184.528 845.53 189.767 837.039 193.561C828.547 197.355 818.52 199.252 806.958 199.252Z" fill="#CB000C"/>
<path d="M949.338 199.252C937.414 199.252 926.936 197.355 917.902 193.561C908.869 189.586 901.642 184.166 896.222 177.301C890.802 170.436 887.55 162.486 886.466 153.453H921.425C922.509 158.692 925.4 163.209 930.097 167.003C934.975 170.616 941.208 172.423 948.796 172.423C956.384 172.423 961.895 170.887 965.327 167.816C968.941 164.745 970.747 161.222 970.747 157.247C970.747 151.466 968.218 147.581 963.159 145.594C958.101 143.426 951.055 141.348 942.021 139.361C936.24 138.096 930.368 136.561 924.406 134.754C918.444 132.947 912.934 130.689 907.875 127.979C902.997 125.088 899.023 121.475 895.951 117.139C892.88 112.622 891.344 107.112 891.344 100.608C891.344 88.684 896.042 78.657 905.436 70.527C915.012 62.397 928.381 58.332 945.544 58.332C961.443 58.332 974.09 62.0357 983.484 69.443C993.06 76.8503 998.751 87.058 1000.56 100.066H967.766C965.779 90.1293 958.281 85.161 945.273 85.161C938.769 85.161 933.711 86.4257 930.097 88.955C926.665 91.4844 924.948 94.646 924.948 98.44C924.948 102.415 927.568 105.576 932.807 107.925C938.047 110.274 945.002 112.442 953.674 114.429C963.069 116.597 971.651 119.036 979.419 121.746C987.369 124.275 993.692 128.16 998.389 133.399C1003.09 138.458 1005.44 145.775 1005.44 155.35C1005.62 163.661 1003.45 171.158 998.931 177.843C994.415 184.528 987.911 189.767 979.419 193.561C970.928 197.355 960.901 199.252 949.338 199.252Z" fill="#CB000C"/>
</svg>
