<svg width="1066" height="309" viewBox="0 0 1066 309" fill="none" xmlns="http://www.w3.org/2000/svg">
<path fill-rule="evenodd" clip-rule="evenodd" d="M43.756 144.507L317.764 277.312C324.036 280.352 331.374 280.301 337.603 277.175L531.203 179.997C536.713 177.231 538.927 170.542 536.15 165.056C534.251 161.305 530.392 158.939 526.173 158.939H327.717L338.634 153.629C362.412 142.063 372.27 113.494 360.654 89.8188C356.209 80.7601 348.996 73.3362 340.05 68.6126C287.72 40.9808 225.38 39.4861 171.775 64.5778L43.8927 124.438C38.3086 127.052 35.91 133.678 38.5352 139.237C39.6204 141.536 41.4627 143.395 43.756 144.507Z" fill="#CB000C"/>
<path fill-rule="evenodd" clip-rule="evenodd" d="M334.87 278.61L529.222 181.075C534.732 178.31 536.947 171.621 534.17 166.135C532.271 162.384 528.412 160.018 524.194 160.018H325.747V265.943V280.572L326.389 280.551C329.316 280.455 332.195 279.795 334.87 278.61Z" fill="#9B020B"/>
<path d="M324 222V122.8H346.8L349.2 141.4C352.8 135 357.667 129.933 363.8 126.2C370.067 122.333 377.4 120.4 385.8 120.4V147.4H378.6C373 147.4 368 148.267 363.6 150C359.2 151.733 355.733 154.733 353.2 159C350.8 163.267 349.6 169.2 349.6 176.8V222H324Z" fill="white"/>
<path d="M449.739 224.4C439.739 224.4 430.872 222.267 423.139 218C415.406 213.733 409.339 207.733 404.939 200C400.539 192.267 398.339 183.333 398.339 173.2C398.339 162.933 400.472 153.8 404.739 145.8C409.139 137.8 415.139 131.6 422.739 127.2C430.472 122.667 439.539 120.4 449.939 120.4C459.672 120.4 468.272 122.533 475.739 126.8C483.206 131.067 489.006 136.933 493.139 144.4C497.406 151.733 499.539 159.933 499.539 169C499.539 170.467 499.472 172 499.339 173.6C499.339 175.2 499.272 176.867 499.139 178.6H423.739C424.272 186.333 426.939 192.4 431.739 196.8C436.672 201.2 442.606 203.4 449.539 203.4C454.739 203.4 459.072 202.267 462.539 200C466.139 197.6 468.806 194.533 470.539 190.8H496.539C494.672 197.067 491.539 202.8 487.139 208C482.872 213.067 477.539 217.067 471.139 220C464.872 222.933 457.739 224.4 449.739 224.4ZM449.939 141.2C443.672 141.2 438.139 143 433.339 146.6C428.539 150.067 425.472 155.4 424.139 162.6H473.539C473.139 156.067 470.739 150.867 466.339 147C461.939 143.133 456.472 141.2 449.939 141.2Z" fill="white"/>
<path d="M562.07 224.4C553.27 224.4 545.537 223 538.87 220.2C532.204 217.267 526.87 213.267 522.87 208.2C518.87 203.133 516.47 197.267 515.67 190.6H541.47C542.27 194.467 544.404 197.8 547.87 200.6C551.47 203.267 556.07 204.6 561.67 204.6C567.27 204.6 571.337 203.467 573.87 201.2C576.537 198.933 577.87 196.333 577.87 193.4C577.87 189.133 576.004 186.267 572.27 184.8C568.537 183.2 563.337 181.667 556.67 180.2C552.404 179.267 548.07 178.133 543.67 176.8C539.27 175.467 535.204 173.8 531.47 171.8C527.87 169.667 524.937 167 522.67 163.8C520.404 160.467 519.27 156.4 519.27 151.6C519.27 142.8 522.737 135.4 529.67 129.4C536.737 123.4 546.604 120.4 559.27 120.4C571.004 120.4 580.337 123.133 587.27 128.6C594.337 134.067 598.537 141.6 599.87 151.2H575.67C574.204 143.867 568.67 140.2 559.07 140.2C554.27 140.2 550.537 141.133 547.87 143C545.337 144.867 544.07 147.2 544.07 150C544.07 152.933 546.004 155.267 549.87 157C553.737 158.733 558.87 160.333 565.27 161.8C572.204 163.4 578.537 165.2 584.27 167.2C590.137 169.067 594.804 171.933 598.27 175.8C601.737 179.533 603.47 184.933 603.47 192C603.604 198.133 602.004 203.667 598.67 208.6C595.337 213.533 590.537 217.4 584.27 220.2C578.004 223 570.604 224.4 562.07 224.4Z" fill="white"/>
<path d="M667.223 222C656.823 222 648.49 219.467 642.223 214.4C635.957 209.333 632.823 200.333 632.823 187.4V144.2H615.823V122.8H632.823L635.823 96.2H658.423V122.8H685.223V144.2H658.423V187.6C658.423 192.4 659.423 195.733 661.423 197.6C663.557 199.333 667.157 200.2 672.223 200.2H684.623V222H667.223Z" fill="white"/>
<path d="M707.203 222V78H732.803V222H707.203Z" fill="white"/>
<path d="M807.161 224.4C797.161 224.4 788.294 222.267 780.561 218C772.828 213.733 766.761 207.733 762.361 200C757.961 192.267 755.761 183.333 755.761 173.2C755.761 162.933 757.894 153.8 762.161 145.8C766.561 137.8 772.561 131.6 780.161 127.2C787.894 122.667 796.961 120.4 807.361 120.4C817.094 120.4 825.694 122.533 833.161 126.8C840.628 131.067 846.428 136.933 850.561 144.4C854.828 151.733 856.961 159.933 856.961 169C856.961 170.467 856.894 172 856.761 173.6C856.761 175.2 856.694 176.867 856.561 178.6H781.161C781.694 186.333 784.361 192.4 789.161 196.8C794.094 201.2 800.028 203.4 806.961 203.4C812.161 203.4 816.494 202.267 819.961 200C823.561 197.6 826.228 194.533 827.961 190.8H853.961C852.094 197.067 848.961 202.8 844.561 208C840.294 213.067 834.961 217.067 828.561 220C822.294 222.933 815.161 224.4 807.161 224.4ZM807.361 141.2C801.094 141.2 795.561 143 790.761 146.6C785.961 150.067 782.894 155.4 781.561 162.6H830.961C830.561 156.067 828.161 150.867 823.761 147C819.361 143.133 813.894 141.2 807.361 141.2Z" fill="white"/>
<path d="M919.492 224.4C910.692 224.4 902.959 223 896.292 220.2C889.626 217.267 884.292 213.267 880.292 208.2C876.292 203.133 873.892 197.267 873.092 190.6H898.892C899.692 194.467 901.826 197.8 905.292 200.6C908.892 203.267 913.492 204.6 919.092 204.6C924.692 204.6 928.759 203.467 931.292 201.2C933.959 198.933 935.292 196.333 935.292 193.4C935.292 189.133 933.426 186.267 929.692 184.8C925.959 183.2 920.759 181.667 914.092 180.2C909.825 179.267 905.492 178.133 901.092 176.8C896.692 175.467 892.626 173.8 888.892 171.8C885.292 169.667 882.359 167 880.092 163.8C877.825 160.467 876.692 156.4 876.692 151.6C876.692 142.8 880.159 135.4 887.092 129.4C894.159 123.4 904.026 120.4 916.692 120.4C928.426 120.4 937.759 123.133 944.692 128.6C951.759 134.067 955.959 141.6 957.292 151.2H933.092C931.625 143.867 926.092 140.2 916.492 140.2C911.692 140.2 907.959 141.133 905.292 143C902.759 144.867 901.492 147.2 901.492 150C901.492 152.933 903.426 155.267 907.292 157C911.159 158.733 916.292 160.333 922.692 161.8C929.626 163.4 935.959 165.2 941.692 167.2C947.559 169.067 952.226 171.933 955.692 175.8C959.159 179.533 960.892 184.933 960.892 192C961.026 198.133 959.425 203.667 956.092 208.6C952.759 213.533 947.959 217.4 941.692 220.2C935.426 223 928.026 224.4 919.492 224.4Z" fill="white"/>
<path d="M1024.57 224.4C1015.77 224.4 1008.04 223 1001.37 220.2C994.704 217.267 989.37 213.267 985.37 208.2C981.37 203.133 978.97 197.267 978.17 190.6H1003.97C1004.77 194.467 1006.9 197.8 1010.37 200.6C1013.97 203.267 1018.57 204.6 1024.17 204.6C1029.77 204.6 1033.84 203.467 1036.37 201.2C1039.04 198.933 1040.37 196.333 1040.37 193.4C1040.37 189.133 1038.5 186.267 1034.77 184.8C1031.04 183.2 1025.84 181.667 1019.17 180.2C1014.9 179.267 1010.57 178.133 1006.17 176.8C1001.77 175.467 997.704 173.8 993.97 171.8C990.37 169.667 987.437 167 985.17 163.8C982.904 160.467 981.77 156.4 981.77 151.6C981.77 142.8 985.237 135.4 992.17 129.4C999.237 123.4 1009.1 120.4 1021.77 120.4C1033.5 120.4 1042.84 123.133 1049.77 128.6C1056.84 134.067 1061.04 141.6 1062.37 151.2H1038.17C1036.7 143.867 1031.17 140.2 1021.57 140.2C1016.77 140.2 1013.04 141.133 1010.37 143C1007.84 144.867 1006.57 147.2 1006.57 150C1006.57 152.933 1008.5 155.267 1012.37 157C1016.24 158.733 1021.37 160.333 1027.77 161.8C1034.7 163.4 1041.04 165.2 1046.77 167.2C1052.64 169.067 1057.3 171.933 1060.77 175.8C1064.24 179.533 1065.97 184.933 1065.97 192C1066.1 198.133 1064.5 203.667 1061.17 208.6C1057.84 213.533 1053.04 217.4 1046.77 220.2C1040.5 223 1033.1 224.4 1024.57 224.4Z" fill="white"/>
</svg>
