<svg width="137" height="137" viewBox="0 0 137 137" fill="none" xmlns="http://www.w3.org/2000/svg">
<rect width="1" height="1" fill="#CB000C"/>
<rect y="8" width="1" height="1" fill="#CB000C"/>
<rect y="16" width="1" height="1" fill="#CB000C"/>
<rect y="24" width="1" height="1" fill="#CB000C"/>
<rect y="32" width="1" height="1" fill="#CB000C"/>
<rect y="40" width="1" height="1" fill="#CB000C"/>
<rect y="48" width="1" height="1" fill="#CB000C"/>
<rect y="56" width="1" height="1" fill="#CB000C"/>
<rect y="64" width="1" height="1" fill="#CB000C"/>
<rect y="72" width="1" height="1" fill="#CB000C"/>
<rect y="80" width="1" height="1" fill="#CB000C"/>
<rect y="88" width="1" height="1" fill="#CB000C"/>
<rect y="96" width="1" height="1" fill="#CB000C"/>
<rect y="104" width="1" height="1" fill="#CB000C"/>
<rect y="112" width="1" height="1" fill="#CB000C"/>
<rect y="120" width="1" height="1" fill="#CB000C"/>
<rect y="128" width="1" height="1" fill="#CB000C"/>
<rect y="136" width="1" height="1" fill="#CB000C"/>
<rect x="8" width="1" height="1" fill="#CB000C"/>
<rect x="8" y="8" width="1" height="1" fill="#CB000C"/>
<rect x="8" y="16" width="1" height="1" fill="#CB000C"/>
<rect x="8" y="24" width="1" height="1" fill="#CB000C"/>
<rect x="8" y="32" width="1" height="1" fill="#CB000C"/>
<rect x="8" y="40" width="1" height="1" fill="#CB000C"/>
<rect x="8" y="48" width="1" height="1" fill="#CB000C"/>
<rect x="8" y="56" width="1" height="1" fill="#CB000C"/>
<rect x="8" y="64" width="1" height="1" fill="#CB000C"/>
<rect x="8" y="72" width="1" height="1" fill="#CB000C"/>
<rect x="8" y="80" width="1" height="1" fill="#CB000C"/>
<rect x="8" y="88" width="1" height="1" fill="#CB000C"/>
<rect x="8" y="96" width="1" height="1" fill="#CB000C"/>
<rect x="8" y="104" width="1" height="1" fill="#CB000C"/>
<rect x="8" y="112" width="1" height="1" fill="#CB000C"/>
<rect x="8" y="120" width="1" height="1" fill="#CB000C"/>
<rect x="8" y="128" width="1" height="1" fill="#CB000C"/>
<rect x="8" y="136" width="1" height="1" fill="#CB000C"/>
<rect x="16" width="1" height="1" fill="#CB000C"/>
<rect x="16" y="8" width="1" height="1" fill="#CB000C"/>
<rect x="16" y="16" width="1" height="1" fill="#CB000C"/>
<rect x="16" y="24" width="1" height="1" fill="#CB000C"/>
<rect x="16" y="32" width="1" height="1" fill="#CB000C"/>
<rect x="16" y="40" width="1" height="1" fill="#CB000C"/>
<rect x="16" y="48" width="1" height="1" fill="#CB000C"/>
<rect x="16" y="56" width="1" height="1" fill="#CB000C"/>
<rect x="16" y="64" width="1" height="1" fill="#CB000C"/>
<rect x="16" y="72" width="1" height="1" fill="#CB000C"/>
<rect x="16" y="80" width="1" height="1" fill="#CB000C"/>
<rect x="16" y="88" width="1" height="1" fill="#CB000C"/>
<rect x="16" y="96" width="1" height="1" fill="#CB000C"/>
<rect x="16" y="104" width="1" height="1" fill="#CB000C"/>
<rect x="16" y="112" width="1" height="1" fill="#CB000C"/>
<rect x="16" y="120" width="1" height="1" fill="#CB000C"/>
<rect x="16" y="128" width="1" height="1" fill="#CB000C"/>
<rect x="16" y="136" width="1" height="1" fill="#CB000C"/>
<rect x="24" width="1" height="1" fill="#CB000C"/>
<rect x="24" y="8" width="1" height="1" fill="#CB000C"/>
<rect x="24" y="16" width="1" height="1" fill="#CB000C"/>
<rect x="24" y="24" width="1" height="1" fill="#CB000C"/>
<rect x="24" y="32" width="1" height="1" fill="#CB000C"/>
<rect x="24" y="40" width="1" height="1" fill="#CB000C"/>
<rect x="24" y="48" width="1" height="1" fill="#CB000C"/>
<rect x="24" y="56" width="1" height="1" fill="#CB000C"/>
<rect x="24" y="64" width="1" height="1" fill="#CB000C"/>
<rect x="24" y="72" width="1" height="1" fill="#CB000C"/>
<rect x="24" y="80" width="1" height="1" fill="#CB000C"/>
<rect x="24" y="88" width="1" height="1" fill="#CB000C"/>
<rect x="24" y="96" width="1" height="1" fill="#CB000C"/>
<rect x="24" y="104" width="1" height="1" fill="#CB000C"/>
<rect x="24" y="112" width="1" height="1" fill="#CB000C"/>
<rect x="24" y="120" width="1" height="1" fill="#CB000C"/>
<rect x="24" y="128" width="1" height="1" fill="#CB000C"/>
<rect x="24" y="136" width="1" height="1" fill="#CB000C"/>
<rect x="32" width="1" height="1" fill="#CB000C"/>
<rect x="32" y="8" width="1" height="1" fill="#CB000C"/>
<rect x="32" y="16" width="1" height="1" fill="#CB000C"/>
<rect x="32" y="24" width="1" height="1" fill="#CB000C"/>
<rect x="32" y="32" width="1" height="1" fill="#CB000C"/>
<rect x="32" y="40" width="1" height="1" fill="#CB000C"/>
<rect x="32" y="48" width="1" height="1" fill="#CB000C"/>
<rect x="32" y="56" width="1" height="1" fill="#CB000C"/>
<rect x="32" y="64" width="1" height="1" fill="#CB000C"/>
<rect x="32" y="72" width="1" height="1" fill="#CB000C"/>
<rect x="32" y="80" width="1" height="1" fill="#CB000C"/>
<rect x="32" y="88" width="1" height="1" fill="#CB000C"/>
<rect x="32" y="96" width="1" height="1" fill="#CB000C"/>
<rect x="32" y="104" width="1" height="1" fill="#CB000C"/>
<rect x="32" y="112" width="1" height="1" fill="#CB000C"/>
<rect x="32" y="120" width="1" height="1" fill="#CB000C"/>
<rect x="32" y="128" width="1" height="1" fill="#CB000C"/>
<rect x="32" y="136" width="1" height="1" fill="#CB000C"/>
<rect x="40" width="1" height="1" fill="#CB000C"/>
<rect x="40" y="8" width="1" height="1" fill="#CB000C"/>
<rect x="40" y="16" width="1" height="1" fill="#CB000C"/>
<rect x="40" y="24" width="1" height="1" fill="#CB000C"/>
<rect x="40" y="32" width="1" height="1" fill="#CB000C"/>
<rect x="40" y="40" width="1" height="1" fill="#CB000C"/>
<rect x="40" y="48" width="1" height="1" fill="#CB000C"/>
<rect x="40" y="56" width="1" height="1" fill="#CB000C"/>
<rect x="40" y="64" width="1" height="1" fill="#CB000C"/>
<rect x="40" y="72" width="1" height="1" fill="#CB000C"/>
<rect x="40" y="80" width="1" height="1" fill="#CB000C"/>
<rect x="40" y="88" width="1" height="1" fill="#CB000C"/>
<rect x="40" y="96" width="1" height="1" fill="#CB000C"/>
<rect x="40" y="104" width="1" height="1" fill="#CB000C"/>
<rect x="40" y="112" width="1" height="1" fill="#CB000C"/>
<rect x="40" y="120" width="1" height="1" fill="#CB000C"/>
<rect x="40" y="128" width="1" height="1" fill="#CB000C"/>
<rect x="40" y="136" width="1" height="1" fill="#CB000C"/>
<rect x="48" width="1" height="1" fill="#CB000C"/>
<rect x="48" y="8" width="1" height="1" fill="#CB000C"/>
<rect x="48" y="16" width="1" height="1" fill="#CB000C"/>
<rect x="48" y="24" width="1" height="1" fill="#CB000C"/>
<rect x="48" y="32" width="1" height="1" fill="#CB000C"/>
<rect x="48" y="40" width="1" height="1" fill="#CB000C"/>
<rect x="48" y="48" width="1" height="1" fill="#CB000C"/>
<rect x="48" y="56" width="1" height="1" fill="#CB000C"/>
<rect x="48" y="64" width="1" height="1" fill="#CB000C"/>
<rect x="48" y="72" width="1" height="1" fill="#CB000C"/>
<rect x="48" y="80" width="1" height="1" fill="#CB000C"/>
<rect x="48" y="88" width="1" height="1" fill="#CB000C"/>
<rect x="48" y="96" width="1" height="1" fill="#CB000C"/>
<rect x="48" y="104" width="1" height="1" fill="#CB000C"/>
<rect x="48" y="112" width="1" height="1" fill="#CB000C"/>
<rect x="48" y="120" width="1" height="1" fill="#CB000C"/>
<rect x="48" y="128" width="1" height="1" fill="#CB000C"/>
<rect x="48" y="136" width="1" height="1" fill="#CB000C"/>
<rect x="56" width="1" height="1" fill="#CB000C"/>
<rect x="56" y="8" width="1" height="1" fill="#CB000C"/>
<rect x="56" y="16" width="1" height="1" fill="#CB000C"/>
<rect x="56" y="24" width="1" height="1" fill="#CB000C"/>
<rect x="56" y="32" width="1" height="1" fill="#CB000C"/>
<rect x="56" y="40" width="1" height="1" fill="#CB000C"/>
<rect x="56" y="48" width="1" height="1" fill="#CB000C"/>
<rect x="56" y="56" width="1" height="1" fill="#CB000C"/>
<rect x="56" y="64" width="1" height="1" fill="#CB000C"/>
<rect x="56" y="72" width="1" height="1" fill="#CB000C"/>
<rect x="56" y="80" width="1" height="1" fill="#CB000C"/>
<rect x="56" y="88" width="1" height="1" fill="#CB000C"/>
<rect x="56" y="96" width="1" height="1" fill="#CB000C"/>
<rect x="56" y="104" width="1" height="1" fill="#CB000C"/>
<rect x="56" y="112" width="1" height="1" fill="#CB000C"/>
<rect x="56" y="120" width="1" height="1" fill="#CB000C"/>
<rect x="56" y="128" width="1" height="1" fill="#CB000C"/>
<rect x="56" y="136" width="1" height="1" fill="#CB000C"/>
<rect x="64" width="1" height="1" fill="#CB000C"/>
<rect x="64" y="8" width="1" height="1" fill="#CB000C"/>
<rect x="64" y="16" width="1" height="1" fill="#CB000C"/>
<rect x="64" y="24" width="1" height="1" fill="#CB000C"/>
<rect x="64" y="32" width="1" height="1" fill="#CB000C"/>
<rect x="64" y="40" width="1" height="1" fill="#CB000C"/>
<rect x="64" y="48" width="1" height="1" fill="#CB000C"/>
<rect x="64" y="56" width="1" height="1" fill="#CB000C"/>
<rect x="64" y="64" width="1" height="1" fill="#CB000C"/>
<rect x="64" y="72" width="1" height="1" fill="#CB000C"/>
<rect x="64" y="80" width="1" height="1" fill="#CB000C"/>
<rect x="64" y="88" width="1" height="1" fill="#CB000C"/>
<rect x="64" y="96" width="1" height="1" fill="#CB000C"/>
<rect x="64" y="104" width="1" height="1" fill="#CB000C"/>
<rect x="64" y="112" width="1" height="1" fill="#CB000C"/>
<rect x="64" y="120" width="1" height="1" fill="#CB000C"/>
<rect x="64" y="128" width="1" height="1" fill="#CB000C"/>
<rect x="64" y="136" width="1" height="1" fill="#CB000C"/>
<rect x="72" width="1" height="1" fill="#CB000C"/>
<rect x="72" y="8" width="1" height="1" fill="#CB000C"/>
<rect x="72" y="16" width="1" height="1" fill="#CB000C"/>
<rect x="72" y="24" width="1" height="1" fill="#CB000C"/>
<rect x="72" y="32" width="1" height="1" fill="#CB000C"/>
<rect x="72" y="40" width="1" height="1" fill="#CB000C"/>
<rect x="72" y="48" width="1" height="1" fill="#CB000C"/>
<rect x="72" y="56" width="1" height="1" fill="#CB000C"/>
<rect x="72" y="64" width="1" height="1" fill="#CB000C"/>
<rect x="72" y="72" width="1" height="1" fill="#CB000C"/>
<rect x="72" y="80" width="1" height="1" fill="#CB000C"/>
<rect x="72" y="88" width="1" height="1" fill="#CB000C"/>
<rect x="72" y="96" width="1" height="1" fill="#CB000C"/>
<rect x="72" y="104" width="1" height="1" fill="#CB000C"/>
<rect x="72" y="112" width="1" height="1" fill="#CB000C"/>
<rect x="72" y="120" width="1" height="1" fill="#CB000C"/>
<rect x="72" y="128" width="1" height="1" fill="#CB000C"/>
<rect x="72" y="136" width="1" height="1" fill="#CB000C"/>
<rect x="80" width="1" height="1" fill="#CB000C"/>
<rect x="80" y="8" width="1" height="1" fill="#CB000C"/>
<rect x="80" y="16" width="1" height="1" fill="#CB000C"/>
<rect x="80" y="24" width="1" height="1" fill="#CB000C"/>
<rect x="80" y="32" width="1" height="1" fill="#CB000C"/>
<rect x="80" y="40" width="1" height="1" fill="#CB000C"/>
<rect x="80" y="48" width="1" height="1" fill="#CB000C"/>
<rect x="80" y="56" width="1" height="1" fill="#CB000C"/>
<rect x="80" y="64" width="1" height="1" fill="#CB000C"/>
<rect x="80" y="72" width="1" height="1" fill="#CB000C"/>
<rect x="80" y="80" width="1" height="1" fill="#CB000C"/>
<rect x="80" y="88" width="1" height="1" fill="#CB000C"/>
<rect x="80" y="96" width="1" height="1" fill="#CB000C"/>
<rect x="80" y="104" width="1" height="1" fill="#CB000C"/>
<rect x="80" y="112" width="1" height="1" fill="#CB000C"/>
<rect x="80" y="120" width="1" height="1" fill="#CB000C"/>
<rect x="80" y="128" width="1" height="1" fill="#CB000C"/>
<rect x="80" y="136" width="1" height="1" fill="#CB000C"/>
<rect x="88" width="1" height="1" fill="#CB000C"/>
<rect x="88" y="8" width="1" height="1" fill="#CB000C"/>
<rect x="88" y="16" width="1" height="1" fill="#CB000C"/>
<rect x="88" y="24" width="1" height="1" fill="#CB000C"/>
<rect x="88" y="32" width="1" height="1" fill="#CB000C"/>
<rect x="88" y="40" width="1" height="1" fill="#CB000C"/>
<rect x="88" y="48" width="1" height="1" fill="#CB000C"/>
<rect x="88" y="56" width="1" height="1" fill="#CB000C"/>
<rect x="88" y="64" width="1" height="1" fill="#CB000C"/>
<rect x="88" y="72" width="1" height="1" fill="#CB000C"/>
<rect x="88" y="80" width="1" height="1" fill="#CB000C"/>
<rect x="88" y="88" width="1" height="1" fill="#CB000C"/>
<rect x="88" y="96" width="1" height="1" fill="#CB000C"/>
<rect x="88" y="104" width="1" height="1" fill="#CB000C"/>
<rect x="88" y="112" width="1" height="1" fill="#CB000C"/>
<rect x="88" y="120" width="1" height="1" fill="#CB000C"/>
<rect x="88" y="128" width="1" height="1" fill="#CB000C"/>
<rect x="88" y="136" width="1" height="1" fill="#CB000C"/>
<rect x="96" width="1" height="1" fill="#CB000C"/>
<rect x="96" y="8" width="1" height="1" fill="#CB000C"/>
<rect x="96" y="16" width="1" height="1" fill="#CB000C"/>
<rect x="96" y="24" width="1" height="1" fill="#CB000C"/>
<rect x="96" y="32" width="1" height="1" fill="#CB000C"/>
<rect x="96" y="40" width="1" height="1" fill="#CB000C"/>
<rect x="96" y="48" width="1" height="1" fill="#CB000C"/>
<rect x="96" y="56" width="1" height="1" fill="#CB000C"/>
<rect x="96" y="64" width="1" height="1" fill="#CB000C"/>
<rect x="96" y="72" width="1" height="1" fill="#CB000C"/>
<rect x="96" y="80" width="1" height="1" fill="#CB000C"/>
<rect x="96" y="88" width="1" height="1" fill="#CB000C"/>
<rect x="96" y="96" width="1" height="1" fill="#CB000C"/>
<rect x="96" y="104" width="1" height="1" fill="#CB000C"/>
<rect x="96" y="112" width="1" height="1" fill="#CB000C"/>
<rect x="96" y="120" width="1" height="1" fill="#CB000C"/>
<rect x="96" y="128" width="1" height="1" fill="#CB000C"/>
<rect x="96" y="136" width="1" height="1" fill="#CB000C"/>
<rect x="104" width="1" height="1" fill="#CB000C"/>
<rect x="104" y="8" width="1" height="1" fill="#CB000C"/>
<rect x="104" y="16" width="1" height="1" fill="#CB000C"/>
<rect x="104" y="24" width="1" height="1" fill="#CB000C"/>
<rect x="104" y="32" width="1" height="1" fill="#CB000C"/>
<rect x="104" y="40" width="1" height="1" fill="#CB000C"/>
<rect x="104" y="48" width="1" height="1" fill="#CB000C"/>
<rect x="104" y="56" width="1" height="1" fill="#CB000C"/>
<rect x="104" y="64" width="1" height="1" fill="#CB000C"/>
<rect x="104" y="72" width="1" height="1" fill="#CB000C"/>
<rect x="104" y="80" width="1" height="1" fill="#CB000C"/>
<rect x="104" y="88" width="1" height="1" fill="#CB000C"/>
<rect x="104" y="96" width="1" height="1" fill="#CB000C"/>
<rect x="104" y="104" width="1" height="1" fill="#CB000C"/>
<rect x="104" y="112" width="1" height="1" fill="#CB000C"/>
<rect x="104" y="120" width="1" height="1" fill="#CB000C"/>
<rect x="104" y="128" width="1" height="1" fill="#CB000C"/>
<rect x="104" y="136" width="1" height="1" fill="#CB000C"/>
<rect x="112" width="1" height="1" fill="#CB000C"/>
<rect x="112" y="8" width="1" height="1" fill="#CB000C"/>
<rect x="112" y="16" width="1" height="1" fill="#CB000C"/>
<rect x="112" y="24" width="1" height="1" fill="#CB000C"/>
<rect x="112" y="32" width="1" height="1" fill="#CB000C"/>
<rect x="112" y="40" width="1" height="1" fill="#CB000C"/>
<rect x="112" y="48" width="1" height="1" fill="#CB000C"/>
<rect x="112" y="56" width="1" height="1" fill="#CB000C"/>
<rect x="112" y="64" width="1" height="1" fill="#CB000C"/>
<rect x="112" y="72" width="1" height="1" fill="#CB000C"/>
<rect x="112" y="80" width="1" height="1" fill="#CB000C"/>
<rect x="112" y="88" width="1" height="1" fill="#CB000C"/>
<rect x="112" y="96" width="1" height="1" fill="#CB000C"/>
<rect x="112" y="104" width="1" height="1" fill="#CB000C"/>
<rect x="112" y="112" width="1" height="1" fill="#CB000C"/>
<rect x="112" y="120" width="1" height="1" fill="#CB000C"/>
<rect x="112" y="128" width="1" height="1" fill="#CB000C"/>
<rect x="112" y="136" width="1" height="1" fill="#CB000C"/>
<rect x="120" width="1" height="1" fill="#CB000C"/>
<rect x="120" y="8" width="1" height="1" fill="#CB000C"/>
<rect x="120" y="16" width="1" height="1" fill="#CB000C"/>
<rect x="120" y="24" width="1" height="1" fill="#CB000C"/>
<rect x="120" y="32" width="1" height="1" fill="#CB000C"/>
<rect x="120" y="40" width="1" height="1" fill="#CB000C"/>
<rect x="120" y="48" width="1" height="1" fill="#CB000C"/>
<rect x="120" y="56" width="1" height="1" fill="#CB000C"/>
<rect x="120" y="64" width="1" height="1" fill="#CB000C"/>
<rect x="120" y="72" width="1" height="1" fill="#CB000C"/>
<rect x="120" y="80" width="1" height="1" fill="#CB000C"/>
<rect x="120" y="88" width="1" height="1" fill="#CB000C"/>
<rect x="120" y="96" width="1" height="1" fill="#CB000C"/>
<rect x="120" y="104" width="1" height="1" fill="#CB000C"/>
<rect x="120" y="112" width="1" height="1" fill="#CB000C"/>
<rect x="120" y="120" width="1" height="1" fill="#CB000C"/>
<rect x="120" y="128" width="1" height="1" fill="#CB000C"/>
<rect x="120" y="136" width="1" height="1" fill="#CB000C"/>
<rect x="128" width="1" height="1" fill="#CB000C"/>
<rect x="128" y="8" width="1" height="1" fill="#CB000C"/>
<rect x="128" y="16" width="1" height="1" fill="#CB000C"/>
<rect x="128" y="24" width="1" height="1" fill="#CB000C"/>
<rect x="128" y="32" width="1" height="1" fill="#CB000C"/>
<rect x="128" y="40" width="1" height="1" fill="#CB000C"/>
<rect x="128" y="48" width="1" height="1" fill="#CB000C"/>
<rect x="128" y="56" width="1" height="1" fill="#CB000C"/>
<rect x="128" y="64" width="1" height="1" fill="#CB000C"/>
<rect x="128" y="72" width="1" height="1" fill="#CB000C"/>
<rect x="128" y="80" width="1" height="1" fill="#CB000C"/>
<rect x="128" y="88" width="1" height="1" fill="#CB000C"/>
<rect x="128" y="96" width="1" height="1" fill="#CB000C"/>
<rect x="128" y="104" width="1" height="1" fill="#CB000C"/>
<rect x="128" y="112" width="1" height="1" fill="#CB000C"/>
<rect x="128" y="120" width="1" height="1" fill="#CB000C"/>
<rect x="128" y="128" width="1" height="1" fill="#CB000C"/>
<rect x="128" y="136" width="1" height="1" fill="#CB000C"/>
<rect x="136" width="1" height="1" fill="#CB000C"/>
<rect x="136" y="8" width="1" height="1" fill="#CB000C"/>
<rect x="136" y="16" width="1" height="1" fill="#CB000C"/>
<rect x="136" y="24" width="1" height="1" fill="#CB000C"/>
<rect x="136" y="32" width="1" height="1" fill="#CB000C"/>
<rect x="136" y="40" width="1" height="1" fill="#CB000C"/>
<rect x="136" y="48" width="1" height="1" fill="#CB000C"/>
<rect x="136" y="56" width="1" height="1" fill="#CB000C"/>
<rect x="136" y="64" width="1" height="1" fill="#CB000C"/>
<rect x="136" y="72" width="1" height="1" fill="#CB000C"/>
<rect x="136" y="80" width="1" height="1" fill="#CB000C"/>
<rect x="136" y="88" width="1" height="1" fill="#CB000C"/>
<rect x="136" y="96" width="1" height="1" fill="#CB000C"/>
<rect x="136" y="104" width="1" height="1" fill="#CB000C"/>
<rect x="136" y="112" width="1" height="1" fill="#CB000C"/>
<rect x="136" y="120" width="1" height="1" fill="#CB000C"/>
<rect x="136" y="128" width="1" height="1" fill="#CB000C"/>
<rect x="136" y="136" width="1" height="1" fill="#CB000C"/>
</svg>
